<svg xmlns="http://www.w3.org/2000/svg" xmlns:xlink="http://www.w3.org/1999/xlink" viewBox="0 0 409.95 427.59"><defs><style>.cls-1,.cls-5,.cls-6{fill:#3068f4;}.cls-2{fill:url(#linear-gradient);}.cls-3{fill:url(#linear-gradient-2);}.cls-4{fill:url(#linear-gradient-3);}.cls-5{opacity:0.24;}.cls-5,.cls-6{isolation:isolate;}.cls-6{opacity:0.51;}.cls-7{fill:#606161;}.cls-8{fill:url(#linear-gradient-4);}.cls-9{fill:url(#linear-gradient-5);}.cls-10{fill:url(#linear-gradient-6);}.cls-11{fill:#f4a982;}.cls-12{fill:url(#linear-gradient-7);}.cls-13{fill:url(#linear-gradient-8);}.cls-14{fill:url(#linear-gradient-9);}.cls-15{fill:url(#linear-gradient-10);}.cls-16{fill:url(#linear-gradient-11);}.cls-17{fill:url(#linear-gradient-12);}.cls-18{fill:url(#linear-gradient-13);}.cls-19{fill:url(#linear-gradient-14);}.cls-20{fill:url(#linear-gradient-15);}.cls-21{fill:url(#linear-gradient-16);}.cls-22{fill:url(#linear-gradient-17);}.cls-23{fill:url(#linear-gradient-18);}.cls-24{fill:url(#linear-gradient-19);}.cls-25{fill:url(#linear-gradient-20);}.cls-26{fill:url(#linear-gradient-21);}</style><linearGradient id="linear-gradient" x1="-2181.19" y1="70.34" x2="-2167.56" y2="397.48" gradientTransform="translate(-2103.08 380.51) rotate(180)" gradientUnits="userSpaceOnUse"><stop offset="0" stop-color="#fff" stop-opacity="0"/><stop offset="0.95" stop-color="#fff"/></linearGradient><linearGradient id="linear-gradient-2" x1="214.98" y1="72.25" x2="147.42" y2="-1384.05" gradientTransform="matrix(1, 0, 0, -1, 0, 383.8)" gradientUnits="userSpaceOnUse"><stop offset="0" stop-color="#010101" stop-opacity="0"/><stop offset="0.95" stop-color="#010101"/></linearGradient><linearGradient id="linear-gradient-3" x1="164.93" y1="-296.01" x2="291.92" y2="471.44" gradientTransform="matrix(1, 0, 0, -1, -27.83, 380.51)" xlink:href="#linear-gradient"/><linearGradient id="linear-gradient-4" x1="206.91" y1="57.12" x2="210.92" y2="81.36" gradientTransform="matrix(1, 0, 0, -1, 0, 383.8)" xlink:href="#linear-gradient"/><linearGradient id="linear-gradient-5" x1="207.29" y1="45.72" x2="218.34" y2="11.73" gradientTransform="matrix(1, 0, 0, -1, -27.83, 380.51)" xlink:href="#linear-gradient-2"/><linearGradient id="linear-gradient-6" x1="213.68" y1="24.95" x2="217.22" y2="-2.58" gradientTransform="matrix(1, 0, 0, -1, -27.83, 380.51)" xlink:href="#linear-gradient-2"/><linearGradient id="linear-gradient-7" x1="208.42" y1="72.88" x2="176.94" y2="-3.23" gradientTransform="matrix(1, 0, 0, -1, -27.83, 380.51)" xlink:href="#linear-gradient-2"/><linearGradient id="linear-gradient-8" x1="186.32" y1="114.6" x2="220.27" y2="114.6" gradientTransform="matrix(1, 0, 0, -1, -27.83, 380.51)" xlink:href="#linear-gradient-2"/><linearGradient id="linear-gradient-9" x1="163.12" y1="41.92" x2="294.93" y2="83.35" gradientTransform="matrix(1, 0, 0, -1, -27.83, 380.51)" xlink:href="#linear-gradient-2"/><linearGradient id="linear-gradient-10" x1="277.22" y1="22.96" x2="294.94" y2="22.96" gradientTransform="matrix(1, 0, 0, -1, -27.83, 380.51)" xlink:href="#linear-gradient-2"/><linearGradient id="linear-gradient-11" x1="180.72" y1="81.77" x2="174.31" y2="143.23" gradientTransform="matrix(1, 0, 0, -1, -27.83, 380.51)" xlink:href="#linear-gradient-2"/><linearGradient id="linear-gradient-12" x1="178.71" y1="94.49" x2="188.82" y2="131.6" gradientTransform="matrix(1, 0, 0, -1, -27.83, 380.51)" xlink:href="#linear-gradient-2"/><linearGradient id="linear-gradient-13" x1="174.87" y1="90.71" x2="182.86" y2="120.05" gradientTransform="matrix(1, 0, 0, -1, -27.83, 380.51)" xlink:href="#linear-gradient-2"/><linearGradient id="linear-gradient-14" x1="437.87" y1="-578.45" x2="385.2" y2="-627.23" gradientTransform="matrix(0.84, -0.54, -0.54, -0.84, -341.99, -165.71)" xlink:href="#linear-gradient"/><linearGradient id="linear-gradient-15" x1="433.43" y1="-578.16" x2="408.68" y2="-608.57" gradientTransform="matrix(0.84, -0.54, -0.54, -0.84, -341.99, -165.71)" xlink:href="#linear-gradient"/><linearGradient id="linear-gradient-16" x1="465.1" y1="-505.66" x2="410.83" y2="-555.92" gradientTransform="matrix(0.87, -0.5, -0.5, -0.87, -280.62, -147.5)" xlink:href="#linear-gradient"/><linearGradient id="linear-gradient-17" x1="460.51" y1="-505.36" x2="435.02" y2="-536.69" gradientTransform="matrix(0.87, -0.5, -0.5, -0.87, -280.62, -147.5)" xlink:href="#linear-gradient"/><linearGradient id="linear-gradient-18" x1="162.29" y1="-1090.15" x2="108.02" y2="-1140.41" gradientTransform="matrix(0.6, -0.8, -0.8, -0.6, -683.87, -400.77)" xlink:href="#linear-gradient"/><linearGradient id="linear-gradient-19" x1="157.71" y1="-1089.86" x2="132.22" y2="-1121.17" gradientTransform="matrix(0.6, -0.8, -0.8, -0.6, -683.87, -400.77)" xlink:href="#linear-gradient"/><linearGradient id="linear-gradient-20" x1="-130.42" y1="-1445.64" x2="-168.89" y2="-1481.27" gradientTransform="matrix(0.33, -0.94, -0.94, -0.33, -1012.24, -443.99)" xlink:href="#linear-gradient"/><linearGradient id="linear-gradient-21" x1="-133.66" y1="-1445.43" x2="-151.73" y2="-1467.64" gradientTransform="matrix(0.33, -0.94, -0.94, -0.33, -1012.24, -443.99)" xlink:href="#linear-gradient"/></defs><title>Asset 1</title><g id="Layer_2" data-name="Layer 2"><g id="Layer_1-2" data-name="Layer 1"><path class="cls-1" d="M0,177.09v51.2a21.42,21.42,0,0,0,21.4,21.42h3.87v22.51L37,249.71h88.89a21.42,21.42,0,0,0,21.42-21.42h0v-51.2a21.42,21.42,0,0,0-21.4-21.42H21.42A21.42,21.42,0,0,0,0,177.07Z"/><path class="cls-2" d="M0,177.09v51.2a21.42,21.42,0,0,0,21.4,21.42h3.87v22.51L37,249.71h88.89a21.42,21.42,0,0,0,21.42-21.42h0v-51.2a21.42,21.42,0,0,0-21.4-21.42H21.42A21.42,21.42,0,0,0,0,177.07Z"/><rect class="cls-1" x="18.99" y="174.27" width="109.73" height="6.13"/><rect class="cls-1" x="18.99" y="190.46" width="109.73" height="6.13"/><rect class="cls-1" x="18.99" y="206.64" width="109.73" height="6.13"/><ellipse class="cls-3" cx="210.87" cy="400.07" rx="166.4" ry="27.52"/><rect class="cls-1" x="109.65" width="212.22" height="409.95" rx="31.11"/><path class="cls-4" d="M307,34.61V374.78H123.52V34.61a12.91,12.91,0,0,1,12.87-12.87h47.28a10.9,10.9,0,0,0,10.88,10.87H237.2a10.9,10.9,0,0,0,10.92-10.86v0h46A12.89,12.89,0,0,1,307,34.61Z"/><rect class="cls-5" x="131.87" y="282.94" width="164.76" height="83.71"/><rect class="cls-6" x="131.48" y="98.92" width="166.4" height="160.14"/><polygon class="cls-7" points="202.16 313.83 211.61 304.49 217.95 305.92 217.95 307.73 207.98 318.6 199.57 318.99 202.16 313.83"/><polygon class="cls-8" points="210.88 305.83 215.69 307.16 206.56 316.55 203.05 316.58 203.64 312.88 210.88 305.83"/><path class="cls-7" d="M157.52,340.76S193.91,324,200.81,326.7s25.3,35.8,25.3,35.8l-13-.26-20.7-17.86-17.6,14.75-25.58-1.52Z"/><path class="cls-9" d="M157.52,340.76S193.91,324,200.81,326.7s25.3,35.8,25.3,35.8l-13-.26-20.7-17.86-17.6,14.75-25.58-1.52Z"/><path class="cls-7" d="M128.53,365.73s2.46,8.41,9.06,9.32,105.08-1.44,105.08-1.44a6.28,6.28,0,0,0,3.1-4.4c.78-3.37-1.29-7-1.29-7l-82.42-9.53Z"/><path class="cls-10" d="M128.53,365.73s2.46,8.41,9.06,9.32,105.08-1.44,105.08-1.44a6.28,6.28,0,0,0,3.1-4.4c.78-3.37-1.29-7-1.29-7l-82.42-9.53Z"/><path class="cls-11" d="M196.47,318.72a14.85,14.85,0,0,1,7.91,2.41,8.4,8.4,0,0,1,3.7,7.11,1.76,1.76,0,0,1-.37,1.13,1.52,1.52,0,0,1-1.09.42c-2.23.07-3.65-2.53-5.81-3.09-1.39-.36-2.85.18-4.28.09a5,5,0,0,1-4.06-2.69,4.83,4.83,0,0,1-.1-4.15C193.18,318.55,195,318.61,196.47,318.72Z"/><path class="cls-1" d="M173,318.07a1,1,0,0,0,.24.73,1,1,0,0,0,.7.16l19.32-.38a18.84,18.84,0,0,1,.07,7.06,2.16,2.16,0,0,1-.41,1.06,2.33,2.33,0,0,1-1.47.56,125.81,125.81,0,0,0-24,5.52,4.57,4.57,0,0,1-2.5.38c-1.58-.35-2.3-2.17-2.63-3.75-1.11-5.33-.7-10.85-1.33-16.26-.31-2.63-.84-5.42.25-7.84,1-2.24,8.2-7.76,9.72-4.2,1,2.36.93,5.91,1.23,8.45C172.56,312.39,172.83,315.22,173,318.07Z"/><path class="cls-12" d="M173,318.07a1,1,0,0,0,.24.73,1,1,0,0,0,.7.16l19.32-.38a18.84,18.84,0,0,1,.07,7.06,2.16,2.16,0,0,1-.41,1.06,2.33,2.33,0,0,1-1.47.56,125.81,125.81,0,0,0-24,5.52,4.57,4.57,0,0,1-2.5.38c-1.58-.35-2.3-2.17-2.63-3.75-1.11-5.33-.7-10.85-1.33-16.26-.31-2.63-.84-5.42.25-7.84,1-2.24,8.2-7.76,9.72-4.2,1,2.36.93,5.91,1.23,8.45C172.56,312.39,172.83,315.22,173,318.07Z"/><path class="cls-11" d="M196.76,318.86a13,13,0,0,1,7.48-7.11c.78,1.34-1.71,3.2-.65,4.34a2,2,0,0,0,1.55.38l6.4-.27a.82.82,0,0,1,.57.12.69.69,0,0,1,.2.45,4,4,0,0,1-1.58,3.34c-1,.85-2.12,1.47-3.06,2.34-1.53,1.41-2.5,3.49-4.38,4.4-1.42.69-3.1.58-4.58,1.11-1.82.66-3.52,2.32-5.38,1.76-.89-.26.11-5.51.56-6.11A20,20,0,0,0,196.76,318.86Z"/><path class="cls-11" d="M170,287.14a25.22,25.22,0,0,0,3.64,2.7,2.84,2.84,0,0,0,1.68.55,2.74,2.74,0,0,0,1.7-1.07,16.63,16.63,0,0,0,2.84-4.25,1.76,1.76,0,0,1,.39-.62c.6-.53,1.57,0,2.33-.28a1.63,1.63,0,0,0,1-1.36,5.49,5.49,0,0,0-.13-1.76,15.38,15.38,0,0,1-.22-3.95c.21-2.11,1-4.21.62-6.28a9.34,9.34,0,0,0-3-4.57,12.32,12.32,0,0,0-3.32-2.45,11.83,11.83,0,0,0-4.62-.88,9.16,9.16,0,0,0-5.56,1.19c-1.55,1.08-2.41,2.88-3.2,4.6l-6.73,14.66a2.56,2.56,0,0,0-.31,1.24,2.12,2.12,0,0,0,.48,1,15.16,15.16,0,0,0,5.19,4.59c1.16.62,3.21,1.47,4.48.67S169.12,288.16,170,287.14Z"/><path class="cls-7" d="M190.29,268.45a8.68,8.68,0,0,0,1.74-8.34,2.74,2.74,0,0,0-.7-1.24,3.56,3.56,0,0,0-1.6-.64A40.2,40.2,0,0,1,178.8,254c-1.91-1.09-3.85-2.37-6-2.44a6,6,0,0,0-5.61,3.67,4,4,0,0,0-3.76-.25,6.45,6.45,0,0,0-2.87,2.6c-1.86,3-1.94,6.68-2,10.18l-.07,11.34a1.63,1.63,0,0,0,.08.62,1.09,1.09,0,0,0,1.24.53,3.08,3.08,0,0,0,1.26-.7c1.47-1.16,2.92-2.34,4.37-3.53a5.06,5.06,0,0,1,.62-6.38,1.53,1.53,0,0,1,.73-.44,1.55,1.55,0,0,1,1.27.57,5.15,5.15,0,0,1-.13,7.06,6.53,6.53,0,0,0,3.63-3.43,18.6,18.6,0,0,1,2.68-4.36c1.2-1.22,3.19-1.9,4.64-1,2,1.23,2.29,3.28,5,3.28A8.71,8.71,0,0,0,190.29,268.45Z"/><path class="cls-13" d="M190.29,268.45a8.68,8.68,0,0,0,1.74-8.34,2.74,2.74,0,0,0-.7-1.24,3.56,3.56,0,0,0-1.6-.64A40.2,40.2,0,0,1,178.8,254c-1.91-1.09-3.85-2.37-6-2.44a6,6,0,0,0-5.61,3.67,4,4,0,0,0-3.76-.25,6.45,6.45,0,0,0-2.87,2.6c-1.86,3-1.94,6.68-2,10.18l-.07,11.34a1.63,1.63,0,0,0,.08.62,1.09,1.09,0,0,0,1.24.53,3.08,3.08,0,0,0,1.26-.7c1.47-1.16,2.92-2.34,4.37-3.53a5.06,5.06,0,0,1,.62-6.38,1.53,1.53,0,0,1,.73-.44,1.55,1.55,0,0,1,1.27.57,5.15,5.15,0,0,1-.13,7.06,6.53,6.53,0,0,0,3.63-3.43,18.6,18.6,0,0,1,2.68-4.36c1.2-1.22,3.19-1.9,4.64-1,2,1.23,2.29,3.28,5,3.28A8.71,8.71,0,0,0,190.29,268.45Z"/><path class="cls-1" d="M162,343.73c.34,3,.88,6.06.09,9-.91,3.34-3.46,6.09-6.35,8.24a33.36,33.36,0,0,1-19.84,6.41c-4,0-8.38-1-10.36-4.23-1.31-2.11-1.24-4.7-1.13-7.14l.57-12.7c.41-9.22.84-18.51,3.19-27.47S135,298.17,142.3,292a21.88,21.88,0,0,1,8.17-4.58c11.33-3.11,23.75,3.84,19.74,15.28C165.29,316.72,160.25,328.52,162,343.73Z"/><path class="cls-14" d="M145,343c.17,1-.36,3.58.18,4.45,1.3,2.06,2.33,17.48,4.7,16.89s9.82-8.49,11.73-10c1.66-1.32.6-13.16,0-15.21a7.55,7.55,0,0,0-1.48-2.3c-2.35-3-2.94-7.06-3-10.89s.32-7.72-.4-11.48c-.76-4-3.24-8.5-7.52-9.39-5.65-1.16-5.72,1.78-4.58,5.65C147.68,321,143.27,332.4,145,343Z"/><path class="cls-11" d="M252,364.15a4,4,0,0,1,.91,2.81,8.77,8.77,0,0,1-.07,2.4,3.14,3.14,0,0,1-1.24,2,4.77,4.77,0,0,1-2.63.46l-2.37-.06a7.86,7.86,0,0,1-2.41-.3,2.65,2.65,0,0,1-1.73-1.58,3.43,3.43,0,0,1,0-1.8c.44-2,1-4.73,3.37-4.75C247.43,363.3,250.76,363,252,364.15Z"/><path class="cls-7" d="M257.9,346.19a119.93,119.93,0,0,1-7,12.53,7.69,7.69,0,0,0-1.55,3.83,10.82,10.82,0,0,0,.6,2.75,11.62,11.62,0,0,1,.31,4.47,15.66,15.66,0,0,0-.27,2.56,2.71,2.71,0,0,0,1.13,2.2,3.59,3.59,0,0,0,1.82.39l7.53.32a4,4,0,0,0,1.37-.09,3.69,3.69,0,0,0,1.93-1.78c3.55-5.8,2.38-13.2,3.61-19.89.51-2.77,1.45-5.49,1.52-8.31a5.84,5.84,0,0,0-1.53-4.56c-1.24-1.1-3.55-1-4.25.49"/><path class="cls-15" d="M257.9,346.19a119.93,119.93,0,0,1-7,12.53,7.69,7.69,0,0,0-1.55,3.83,10.82,10.82,0,0,0,.6,2.75,11.62,11.62,0,0,1,.31,4.47,15.66,15.66,0,0,0-.27,2.56,2.71,2.71,0,0,0,1.13,2.2,3.59,3.59,0,0,0,1.82.39c2.51.11,2.33-.09,4.84,0a4.51,4.51,0,0,0,1.37-.1,3.69,3.69,0,0,0,1.93-1.78c3.55-5.8,3.24-12.26,4.47-19,.51-2.77,1.45-5.49,1.52-8.31a5.84,5.84,0,0,0-1.53-4.56c-1.24-1.11-1.72-1.64-2.42-.14"/><path class="cls-1" d="M145.27,305.13s-.17-11,9.66-11.91,11.39,9.49,11,12.39,1.55,19.49,1.55,19.49l26.4-1.72,1,7.59s-37.09,11.21-39.16,8.8S151.12,332.73,145.27,305.13Z"/><path class="cls-16" d="M135,300.37s6.88.62,11.36-1.46,16.55-4.43,20.16-3.51c4.3,1.1,3.91-2,3.91-2l-16.77-5.2s-14.7,5.73-15.95,8.13A23.38,23.38,0,0,1,135,300.37Z"/><path class="cls-1" d="M157.69,281.32c-1.73-1.6-3.57-3.26-5.87-3.78s-5.15.59-5.66,2.89c-.19.83-.21,1.92-1,2.19-.5.17-1-.12-1.56-.1a2.16,2.16,0,0,0-1.74,1.39c-.33.72-.45,1.51-.78,2.22-.82,1.81-2.74,2.78-4.24,4.08s-2.66,3.6-1.46,5.18,3.36,1.18,5.13.7c4.41-1.2,8.74-2.8,13.26-3.51s9.37-.46,13.32,1.84c4.34,2.54,4.22-2.47,1.14-4.25C164.23,287.87,161.12,284.44,157.69,281.32Z"/><path class="cls-17" d="M156.8,286.86a9.43,9.43,0,0,1-3.23-1.05,65.75,65.75,0,0,0-6.9-2.7.87.87,0,0,1-.36-.18.82.82,0,0,1-.22-.47c-.2-1,.08-2.88,1.26-3,.93-.14,2.73,1.2,3.49,1.67A19.23,19.23,0,0,1,156.8,286.86Z"/><path class="cls-18" d="M154.19,288.61c-1.14-.07-1.72,1.25-7.67.08-2.42-.48-2.27-.11-4.62-.88a.87.87,0,0,1-.36-.18.82.82,0,0,1-.22-.47c-.2-1,.08-2.88,1.26-3.05.93-.14,2.73,1.2,3.49,1.67C148.44,287.28,149.81,288.48,154.19,288.61Z"/><circle class="cls-5" cx="150.76" cy="77.96" r="14.7"/><rect class="cls-6" x="172.35" y="70.14" width="60.89" height="7.09"/><rect class="cls-5" x="172.35" y="83.59" width="82.85" height="3.54"/><rect class="cls-1" x="305.18" y="82.75" width="47.73" height="77.42" transform="translate(154.31 425.57) rotate(-80.38)"/><polygon class="cls-19" points="363.19 151.47 286.87 138.52 294.84 91.47 372.73 104.06 363.19 151.47"/><polygon class="cls-20" points="294.84 91.47 326.55 136.82 371.34 105.16 294.84 91.47"/><rect class="cls-1" x="339.58" y="53.02" width="49.17" height="79.76" transform="translate(196.93 429.47) rotate(-77.89)"/><polygon class="cls-21" points="398 125.3 320.02 108.57 330.33 60.49 409.95 76.92 398 125.3"/><polygon class="cls-22" points="330.33 60.49 360.94 108.59 408.45 77.99 330.33 60.49"/><rect class="cls-1" x="250.14" y="134.37" width="79.76" height="49.17" transform="translate(-25.14 58.7) rotate(-11.08)"/><polygon class="cls-23" points="333.87 175.42 255.59 190.75 246.14 142.5 325.79 126.26 333.87 175.42"/><polygon class="cls-24" points="246.14 142.5 293.22 174.66 324.85 127.83 246.14 142.5"/><rect class="cls-1" x="290.4" y="164.93" width="56.55" height="34.86" transform="translate(-48.4 174.29) rotate(-28.52)"/><polygon class="cls-25" points="351.83 184.21 302.14 211.21 285.5 180.56 335.93 152.66 351.83 184.21"/><polygon class="cls-26" points="285.5 180.56 324.17 192.33 335.62 153.92 285.5 180.56"/></g></g></svg>