<?xml version="1.0" encoding="UTF-8"?>
<svg width="1440px" height="240px" viewBox="0 0 1440 240" version="1.1" xmlns="http://www.w3.org/2000/svg" xmlns:xlink="http://www.w3.org/1999/xlink">
    <!-- Generator: Sketch 57.1 (83088) - https://sketch.com -->
    <title>Path</title>
    <desc>Created with Sketch.</desc>
    <g id="Page-1" stroke="none" stroke-width="1" fill="none" fill-rule="evenodd" fill-opacity="0.0523656031">
        <g id="encore" transform="translate(0.000000, -589.000000)" fill="#3068F4" fill-rule="nonzero">
            <g id="Path" transform="translate(0.000000, 589.000000)">
                <path d="M0,73.3206464 L34.3238194,84.4530127 C68.6476389,95.1692159 137.095139,118.058193 206.143056,95.4813383 C274.490486,73.3206464 343.238194,6.73452992 411.285417,1.22036715 C480.333333,-4.70995886 549.38125,51.4720769 617.428472,84.4530127 C686.176181,118.058193 754.523609,128.462274 823.571525,123.260234 C892.019025,118.058193 960.666667,95.1692159 1029.71458,67.8064836 C1097.86188,40.0275881 1166.80972,6.73452992 1234.85694,23.381059 C1303.80479,40.0275881 1371.95208,106.613705 1406.97639,139.906763 L1441,173.199821 L1441,239.785937 L1406.67618,239.785937 C1372.35236,239.785937 1303.90486,239.785937 1234.85694,239.785937 C1166.50952,239.785937 1097.76181,239.785937 1029.71458,239.785937 C960.666667,239.785937 891.61875,239.785937 823.571525,239.785937 C754.823817,239.785937 686.476389,239.785937 617.428472,239.785937 C548.980972,239.785937 480.333333,239.785937 411.285417,239.785937 C343.138125,239.785937 274.190278,239.785937 206.143056,239.785937 C137.195208,239.785937 69.0479167,239.785937 34.0236111,239.785937 L0,239.785937 L0,73.3206464 Z" style="mix-blend-mode: soft-light;"></path>
            </g>
        </g>
    </g>
</svg>