<?xml version="1.0" encoding="UTF-8"?>
<svg width="41px" height="36px" viewBox="0 0 41 36" version="1.1" xmlns="http://www.w3.org/2000/svg" xmlns:xlink="http://www.w3.org/1999/xlink">
    <!-- Generator: Sketch 57.1 (83088) - https://sketch.com -->
    <title>website</title>
    <desc>Created with Sketch.</desc>
    <g id="Page-1" stroke="none" stroke-width="1" fill="none" fill-rule="evenodd">
        <g id="Desktop-HD-Copy-3" transform="translate(-139.000000, -2467.000000)" fill-rule="nonzero">
            <g id="website" transform="translate(139.000000, 2467.000000)">
                <path d="M34.3461108,0 L2.45396104,0 C1.10091153,0 0,1.09594469 0,2.44273035 L0,22.5894963 C0,22.9264789 0.274778662,23.2 0.613310573,23.2 L36.1866894,23.2 C36.5252213,23.2 36.8,22.9264789 36.8,22.5894963 L36.8,2.44273035 C36.8,1.09594469 35.6991603,0 34.3461108,0 Z M35.5733789,21.9789926 L1.22669302,21.9789926 L1.22669302,2.44273035 C1.22669302,1.7686936 1.77747222,1.22107899 2.45396104,1.22107899 L34.3461108,1.22107899 C35.0225997,1.22107899 35.5733789,1.7686936 35.5733789,2.44273035 L35.5733789,21.9789926 Z" id="Shape" fill="#F5A623"></path>
                <path d="M36.1866906,22.4 L0.613309375,22.4 C0.274778125,22.4 0,22.6867261 0,23.0399775 L0,26.23934 C0,27.6512205 1.10090938,28.8 2.45395625,28.8 L34.3460438,28.8 C35.6990906,28.8 36.8,27.6512205 36.8,26.23934 L36.8,23.0399775 C36.8,22.6867261 36.5252219,22.4 36.1866906,22.4 Z M35.5733813,26.239415 C35.5733813,26.9459928 35.0225313,27.520045 34.3460438,27.520045 L2.45395625,27.520045 C1.77746875,27.520045 1.22669063,26.9459928 1.22669063,26.239415 L1.22669063,23.68003 L35.5733813,23.68003 L35.5733813,26.239415 L35.5733813,26.239415 Z" id="Shape" fill="#F5A623"></path>
                <path d="M20.2000176,24.8 L16.5999824,24.8 C16.2688073,24.8 16,25.1584203 16,25.6 C16,26.0415797 16.2688073,26.4 16.5999824,26.4 L20.2000176,26.4 C20.5311927,26.4 20.8,26.0415797 20.8,25.6 C20.8,25.1584203 20.5311927,24.8 20.2000176,24.8 Z" id="Path" fill="#F5A623"></path>
                <path d="M33.4037991,3 L3.59613101,3 C3.26708178,3 3,3.22400416 3,3.49998104 L3,19.500019 C3,19.7759958 3.26708178,20 3.59613101,20 L33.403869,20 C33.7329182,20 34,19.7759958 34,19.500019 L34,3.49998104 C34,3.22400416 33.7329182,3 33.4037991,3 Z" id="Shape" fill-opacity="0.603420017" fill="#FFA30B"></path>
                <path d="M26.924929,32 L10.6749977,32 C9.64125874,32 8.8,32.8973437 8.8,34 C8.8,35.1026563 9.64125874,36 10.6749977,36 L26.9250023,36 C27.9587413,36 28.8,35.1026563 28.8,34 C28.8,32.8973437 27.958668,32 26.924929,32 Z M26.924929,34.6666406 L10.6749977,34.6666406 C10.3300274,34.6666406 10.0500229,34.3673437 10.0500229,34 C10.0500229,33.6326562 10.3300274,33.3333594 10.6749977,33.3333594 L26.9250023,33.3333594 C27.2699726,33.3333594 27.5499771,33.6326562 27.5499771,34 C27.5499771,34.3673437 27.2699726,34.6666406 26.924929,34.6666406 Z" id="Shape" fill="#F5A623"></path>
                <path d="M25.0000205,32.32003 C23.0091827,32.32003 21.9999824,30.8128065 21.9999824,27.839985 C21.9999824,27.4867295 21.7311764,27.2 21.4000029,27.2 L15.3999971,27.2 C15.0688236,27.2 14.8000176,27.4867295 14.8000176,27.839985 C14.8000176,30.8128065 13.7908173,32.32003 11.7999795,32.32003 C11.468806,32.32003 11.2,32.6067595 11.2,32.960015 C11.2,33.3132705 11.468806,33.6 11.7999795,33.6 L25.0000205,33.6 C25.331194,33.6 25.6,33.3132705 25.6,32.960015 C25.6,32.6067595 25.331194,32.32003 25.0000205,32.32003 Z M14.7225328,32.32003 C15.4611692,31.4470914 15.8961245,30.147171 15.9837343,28.47997 L20.8167579,28.47997 C20.9037349,30.147171 21.3387604,31.4470914 22.0779594,32.32003 L14.7225328,32.32003 Z" id="Shape" fill="#F5A623"></path>
                <path d="M40.5128807,27.5338664 L38.1489051,25.1570899 L39.4640738,23.8347995 C39.7079423,23.5896105 39.805834,23.2331921 39.721599,22.8974272 C39.6373639,22.5616624 39.3837406,22.2958198 39.0536861,22.1954365 L29.2607287,19.2416291 C28.9150666,19.1372074 28.5419764,19.2327446 28.2873202,19.4887797 C28.031746,19.7448148 27.9377562,20.1208483 28.0415007,20.4674592 L30.9793994,30.3134452 C31.078324,30.6462101 31.343653,30.9012067 31.6776094,30.9858979 C32.010533,31.0686276 32.3660647,30.972052 32.6099332,30.7269783 L33.9946475,29.3337273 L36.3586231,31.7115423 C36.5417827,31.8966167 36.7915041,32 37.0509802,32 C37.3104563,32 37.5601777,31.8966167 37.7433373,31.7115423 L40.5127659,28.9260788 C40.8957256,28.5411608 40.8957256,27.9188998 40.5128807,27.5338664 Z" id="Shape" fill="#F5A623"></path>
            </g>
        </g>
    </g>
</svg>