<svg xmlns="http://www.w3.org/2000/svg" viewBox="0 0 1000 198.15"><defs><style>.a{fill:#fff;}</style></defs><title>LT-logo-light</title><path class="a" d="M302.86,126.72v16.63H247.68V59h19v67.7Zm70.61-10.12H327c2.17,8.2,8.43,13,16.75,13a23,23,0,0,0,16.38-6.86l9.76,9.88c-6.51,7.22-16,11.44-27.71,11.44-20.72,0-33.85-13.25-33.85-32.89,0-20,13.61-33.25,33.37-33.25C364.43,77.93,375,93,373.47,116.6Zm-17.35-11c-.24-8.56-5.79-14.1-14.34-14.1-8.19,0-13.73,5.54-15.18,14.1Zm67.23,30.12C419,141.18,412,144.19,403,144.19c-13.86,0-22.29-8.43-22.29-20.24,0-12.17,8.79-19.39,24.7-19.52h17.83v-1.2c0-6.87-4.58-10.84-13.49-10.84-5.79,0-12.53,1.92-19.28,5.66l-5.78-12.77c9.64-4.82,17.95-7.47,29.27-7.47,17.35,0,27.35,8.67,27.47,23.25l.12,42.29H423.35Zm-.12-14.58V115.4H408.65c-7.11,0-10.6,2.17-10.6,7.35,0,4.94,3.85,8.19,10.12,8.19C416,130.94,422.14,126.72,423.23,121.18Zm98.31,22.17H503.11v-9.52c-4.58,6.63-11.56,10.24-20.48,10.24-18.43,0-30.6-13.37-30.6-33.37,0-19.76,12.05-32.89,30.12-32.89,9.15,0,16.26,3.61,21,10.24V54h18.43Zm-18.43-32.17c0-10.6-6.63-18-16.14-18s-16.27,7.47-16.39,18c.12,10.6,6.63,17.95,16.39,17.95C496.48,129.13,503.11,121.78,503.11,111.18Zm84.22-26.26L581,97.57c-7.11-4-14.34-6.27-19.76-6.27-4.34,0-7.47,1.45-7.47,4.82,0,9.76,34.21,4.82,34.09,27.71,0,13.25-11.68,20.24-26.38,20.24-10.48,0-20.72-3.13-28.07-9l6-12.52c6.75,5.18,15.42,8.07,22.53,8.07,4.7,0,8.19-1.57,8.19-5.06,0-10.36-33.61-4.82-33.61-27.59,0-13.38,11.44-20.24,25.54-20.24A48.32,48.32,0,0,1,587.33,84.92Zm48-9.76v68.19h-19V75.16H590.59V59h70.48V75.16Zm94.21,68.19H711.07V131.9c-4.45,8.2-11.92,12.17-21.68,12.17-14.34,0-23.38-9.52-23.38-24.82V78.53h18.56V114c0,8.19,4.7,13.13,12.17,13.13,8.91-.12,14.33-7.1,14.33-16.5v-32H729.5Zm82.66-40.72v40.72H793.61v-35.3c0-8.19-4.82-13.25-12.78-13.25-9.27.12-14.81,7.1-14.81,16.62v31.93H747.46V78.53H766V89.86c4.57-8.08,12.29-11.93,22.41-12C802.88,77.81,812.16,87.45,812.16,102.63Zm80.73,0v40.72H874.33v-35.3c0-8.19-4.82-13.25-12.77-13.25-9.28.12-14.82,7.1-14.82,16.62v31.93H828.19V78.53h18.55V89.86c4.58-8.08,12.29-11.93,22.41-12C883.61,77.81,892.89,87.45,892.89,102.63Zm75.66,14h-46.5c2.17,8.2,8.43,13,16.74,13a23,23,0,0,0,16.39-6.86l9.76,9.88c-6.51,7.22-16,11.44-27.71,11.44-20.72,0-33.86-13.25-33.86-32.89,0-20,13.62-33.25,33.38-33.25C959.51,77.93,970.12,93,968.55,116.6Zm-17.34-11c-.25-8.56-5.79-14.1-14.34-14.1-8.2,0-13.74,5.54-15.18,14.1Zm30.24,37.71V54H1000v89.4Z"/><polygon class="a" points="81.38 111.81 111.8 81.39 111.8 66.05 35.61 66.05 81.38 111.81"/><polygon class="a" points="111.8 105.09 111.8 93.06 105.79 99.07 111.8 105.09"/><path class="a" d="M198.15,139V27.52A27.52,27.52,0,0,0,170.63,0H27.52A27.52,27.52,0,0,0,0,27.52V170.63a27.52,27.52,0,0,0,27.52,27.52H170.63a27.52,27.52,0,0,0,27.52-27.52v-5.58H111.8v-24.7h-84a6.23,6.23,0,0,1-6.24-6.23V64a6.24,6.24,0,0,1,6.24-6.24h84V33.09h29.79V139Z"/><polygon class="a" points="29.78 126.26 56.97 99.07 29.78 71.88 29.78 126.26"/><polygon class="a" points="111.8 116.75 99.96 104.91 81.38 123.48 62.8 104.91 35.61 132.1 111.8 132.1 111.8 116.75"/></svg>