<svg xmlns="http://www.w3.org/2000/svg" viewBox="0 0 500 81.27"><defs><style>.cls-1{fill:#fff;}.cls-2{fill:#ccc;}.cls-3{fill:#e6e6e6;}</style></defs><g id="Layer_2" data-name="Layer 2"><g id="Layer_1-2" data-name="Layer 1"><g id="LT-logo-white"><g id="text"><path class="cls-1" d="M126.43,17.46V52.28h21V62.54H114.59V17.46Z"/><path class="cls-1" d="M184.74,47.47v1.65H160.93q.82,6.71,6.84,6.71,4.18,0,5.7-3.48l10.44.69A14.9,14.9,0,0,1,178.06,61a18,18,0,0,1-10.23,2.78q-8.22,0-13-4.87t-4.75-12.66q0-7.73,4.75-12.54t12.4-4.81q8.18,0,12.85,5.25T184.74,47.47ZM161,42.6h12.6q-.76-6-6.21-6T161,42.6Z"/><path class="cls-1" d="M222.15,62.54H211.26a15.91,15.91,0,0,1-.95-3.55q-3.42,4.69-10.32,4.69A12.59,12.59,0,0,1,191.51,61a9.14,9.14,0,0,1-3.17-7.28q0-8,10.13-9.82l11.4-2V39.5c0-2.16-1.61-3.23-4.81-3.23a5.44,5.44,0,0,0-3.48.92,4.35,4.35,0,0,0-1.4,3L190,39.88q.57-5.64,4.24-8.3t11.08-2.66q15.25,0,15.26,12V55A15,15,0,0,0,222.15,62.54Zm-18.68-6.21a6.86,6.86,0,0,0,4.82-1.67,6.16,6.16,0,0,0,1.83-4.78v-2l-7,1.39q-4.12.88-4.12,3.61Q199,56.33,203.47,56.33Z"/><path class="cls-1" d="M249.44,33V17.46h10.88V62.54h-9.94l-.31-3.74a11.08,11.08,0,0,1-9.69,4.94,12.41,12.41,0,0,1-10.19-4.81q-3.85-4.68-3.86-12.79t3.86-12.66a12,12,0,0,1,9.69-4.62A12.11,12.11,0,0,1,249.44,33Zm-6.15,21.59A5.52,5.52,0,0,0,248,52.22a10.15,10.15,0,0,0,1.74-6.2A10,10,0,0,0,248,39.84a5.55,5.55,0,0,0-4.66-2.31,5.22,5.22,0,0,0-4.46,2.22A10.49,10.49,0,0,0,237.22,46a10.61,10.61,0,0,0,1.61,6.33A5.24,5.24,0,0,0,243.29,54.56Z"/><path class="cls-1" d="M282.1,63.8q-7.1,0-11.14-2.94a11.64,11.64,0,0,1-4.75-8.32l10.19-.19q.57,4.49,6.08,4.49a7,7,0,0,0,3.89-.92,2.88,2.88,0,0,0,1.43-2.56q0-2.47-4-3.1l-5.7-.83Q267,47.92,267,39.75a9.37,9.37,0,0,1,3.93-8q3.92-2.88,10.76-2.88,6.58,0,10.51,2.72a10.78,10.78,0,0,1,4.62,7.66L287,39.5q-.71-3.93-5.58-3.93a6,6,0,0,0-3.32.82,2.55,2.55,0,0,0-1.23,2.22q0,2.53,3.73,3.1l5.95.95q11.4,1.65,11.4,9.81a9.64,9.64,0,0,1-4.21,8.39Q289.51,63.8,282.1,63.8Z"/><path class="cls-1" d="M294.64,17.46h38.3V27.72H319.77V62.54H307.93V27.72H294.64Z"/><path class="cls-1" d="M355.28,47.28V29.87h10.89V62.54H355.92l-.32-4.37a10.93,10.93,0,0,1-9.81,5.25q-5.44,0-8.49-3.13c-2-2.09-3-5-3-8.77V29.87h10.89V49a5.8,5.8,0,0,0,1.14,3.83,4.05,4.05,0,0,0,3.3,1.36,5.09,5.09,0,0,0,4.11-1.9A7.51,7.51,0,0,0,355.28,47.28Z"/><path class="cls-1" d="M393.45,29q5.44,0,8.52,3.13T405,40.89V62.54H394.15V43.42A5.69,5.69,0,0,0,393,39.59a4.14,4.14,0,0,0-3.32-1.36,5,5,0,0,0-4.09,1.9,7.66,7.66,0,0,0-1.55,5V62.54H373.13V29.87h10.26l.32,4.37A10.85,10.85,0,0,1,393.45,29Z"/><path class="cls-1" d="M432.33,29c3.63,0,6.46,1,8.51,3.13s3.07,5,3.07,8.77V62.54H433V43.42a5.69,5.69,0,0,0-1.17-3.83,4.14,4.14,0,0,0-3.32-1.36,5,5,0,0,0-4.09,1.9,7.66,7.66,0,0,0-1.55,5V62.54H412V29.87h10.26l.32,4.37A10.85,10.85,0,0,1,432.33,29Z"/><path class="cls-1" d="M483.86,47.47v1.65H460.05q.82,6.71,6.84,6.71a5.66,5.66,0,0,0,5.7-3.48L483,53A14.9,14.9,0,0,1,477.18,61,18,18,0,0,1,467,63.74q-8.22,0-13-4.87t-4.75-12.66q0-7.73,4.75-12.54t12.4-4.81q8.17,0,12.85,5.25T483.86,47.47ZM460.12,42.6h12.59q-.75-6-6.2-6T460.12,42.6Z"/><path class="cls-1" d="M500,62.54H489.11V17.46H500Z"/></g><g id="icon"><polygon class="cls-2" points="46.05 59.6 46.05 59.61 29.81 81.27 24.72 46.56 0 21.66 37.75 21.66 40.97 24.9 46.05 59.6"/><polygon class="cls-3" points="74.52 21.66 46.05 59.6 40.97 24.9 37.75 21.66 74.52 21.66"/><polygon class="cls-1" points="90.77 0 74.52 21.66 37.75 21.66 16.25 0 90.77 0"/></g></g></g></g></svg>