<?xml version="1.0" encoding="UTF-8"?>
<svg width="188px" height="113px" viewBox="0 0 188 113" version="1.1" xmlns="http://www.w3.org/2000/svg" xmlns:xlink="http://www.w3.org/1999/xlink">
    <!-- Generator: Sketch 52.2 (67145) - http://www.bohemiancoding.com/sketch -->
    <title>Group 2 Copy 3</title>
    <desc>Created with Sketch.</desc>
    <g id="web-reg-typ" stroke="none" stroke-width="1" fill="none" fill-rule="evenodd">
        <g id="Group-2-Copy-3">
            <rect id="Rectangle-Copy-5" fill="#FFFFFF" fill-rule="nonzero" x="0" y="0" width="188" height="113" rx="5"></rect>
            <rect id="Rectangle" fill="#DE5A49" fill-rule="nonzero" x="3" y="2" width="182" height="109" rx="5"></rect>
            <path d="M60.6101074,88.5878906 L56.7380371,88.5878906 L55.8684082,91 L54.6115723,91 L58.1408691,81.7578125 L59.2072754,81.7578125 L62.7429199,91 L61.4924316,91 L60.6101074,88.5878906 Z M57.1062012,87.5849609 L60.248291,87.5849609 L58.6740723,83.262207 L57.1062012,87.5849609 Z M63.517334,87.5087891 C63.517334,86.4550729 63.767006,85.6076692 64.2663574,84.9665527 C64.7657089,84.3254362 65.4195109,84.0048828 66.2277832,84.0048828 C67.0318237,84.0048828 67.6686988,84.2799452 68.1384277,84.8300781 L68.1384277,81.25 L69.3127441,81.25 L69.3127441,91 L68.2336426,91 L68.1765137,90.2636719 C67.7067848,90.8391956 67.0529827,91.1269531 66.2150879,91.1269531 C65.419511,91.1269531 64.7709986,90.80111 64.2695312,90.1494141 C63.7680639,89.4977181 63.517334,88.6471407 63.517334,87.5976562 L63.517334,87.5087891 Z M64.6916504,87.6420898 C64.6916504,88.4207396 64.8524561,89.0301085 65.1740723,89.4702148 C65.4956885,89.9103212 65.94002,90.1303711 66.5070801,90.1303711 C67.2518755,90.1303711 67.7956526,89.7960645 68.1384277,89.1274414 L68.1384277,85.9726562 C67.787189,85.3251921 67.2476436,85.0014648 66.5197754,85.0014648 C65.9442517,85.0014648 65.4956885,85.2236306 65.1740723,85.6679688 C64.8524561,86.1123069 64.6916504,86.7703407 64.6916504,87.6420898 Z M70.848877,87.5087891 C70.848877,86.4550729 71.0985489,85.6076692 71.5979004,84.9665527 C72.0972518,84.3254362 72.7510539,84.0048828 73.5593262,84.0048828 C74.3633667,84.0048828 75.0002418,84.2799452 75.4699707,84.8300781 L75.4699707,81.25 L76.6442871,81.25 L76.6442871,91 L75.5651855,91 L75.5080566,90.2636719 C75.0383277,90.8391956 74.3845257,91.1269531 73.5466309,91.1269531 C72.751054,91.1269531 72.1025416,90.80111 71.6010742,90.1494141 C71.0996069,89.4977181 70.848877,88.6471407 70.848877,87.5976562 L70.848877,87.5087891 Z M72.0231934,87.6420898 C72.0231934,88.4207396 72.183999,89.0301085 72.5056152,89.4702148 C72.8272314,89.9103212 73.2715629,90.1303711 73.838623,90.1303711 C74.5834184,90.1303711 75.1271956,89.7960645 75.4699707,89.1274414 L75.4699707,85.9726562 C75.118732,85.3251921 74.5791866,85.0014648 73.8513184,85.0014648 C73.2757946,85.0014648 72.8272314,85.2236306 72.5056152,85.6679688 C72.183999,86.1123069 72.0231934,86.7703407 72.0231934,87.6420898 Z M83.2775879,82.46875 L83.2775879,84.1318359 L84.5598145,84.1318359 L84.5598145,85.0395508 L83.2775879,85.0395508 L83.2775879,89.2988281 C83.2775879,89.5738946 83.3347162,89.7801914 83.4489746,89.9177246 C83.563233,90.0552578 83.7578925,90.1240234 84.032959,90.1240234 C84.1683763,90.1240234 84.3545724,90.0986331 84.5915527,90.0478516 L84.5915527,91 C84.2826319,91.0846358 83.9821792,91.1269531 83.6901855,91.1269531 C83.1654433,91.1269531 82.7697767,90.9682633 82.5031738,90.6508789 C82.2365709,90.3334945 82.1032715,89.8828154 82.1032715,89.2988281 L82.1032715,85.0395508 L80.8527832,85.0395508 L80.8527832,84.1318359 L82.1032715,84.1318359 L82.1032715,82.46875 L83.2775879,82.46875 Z M85.4929199,87.5024414 C85.4929199,86.8295865 85.6251614,86.2244493 85.8896484,85.6870117 C86.1541354,85.1495741 86.5222958,84.7348647 86.9941406,84.4428711 C87.4659854,84.1508774 88.0044729,84.0048828 88.6096191,84.0048828 C89.5448452,84.0048828 90.3012666,84.32861 90.8789062,84.9760742 C91.4565459,85.6235384 91.7453613,86.4846951 91.7453613,87.5595703 L91.7453613,87.6420898 C91.7453613,88.310713 91.6173515,88.9105605 91.3613281,89.4416504 C91.1053047,89.9727403 90.7392602,90.3863917 90.2631836,90.6826172 C89.787107,90.9788426 89.2401561,91.1269531 88.6223145,91.1269531 C87.6913202,91.1269531 86.9370146,90.8032259 86.359375,90.1557617 C85.7817354,89.5082975 85.4929199,88.6513725 85.4929199,87.5849609 L85.4929199,87.5024414 Z M86.673584,87.6420898 C86.673584,88.4038124 86.8502586,89.0152972 87.2036133,89.4765625 C87.5569679,89.9378278 88.0298636,90.168457 88.6223145,90.168457 C89.2189971,90.168457 89.6929507,89.934654 90.0441895,89.467041 C90.3954282,88.999428 90.5710449,88.344568 90.5710449,87.5024414 C90.5710449,86.7491824 90.3922544,86.1387556 90.034668,85.6711426 C89.6770815,85.2035296 89.20207,84.9697266 88.6096191,84.9697266 C88.0298636,84.9697266 87.5622576,85.2003558 87.2067871,85.6616211 C86.8513166,86.1228864 86.673584,86.7830361 86.673584,87.6420898 Z M103.444092,89.7875977 C103.130939,90.2361676 102.694013,90.5715321 102.133301,90.7937012 C101.572588,91.0158703 100.919844,91.1269531 100.175049,91.1269531 C99.4217899,91.1269531 98.7531767,90.9502785 98.1691895,90.5969238 C97.5852022,90.2435692 97.1334651,89.7410514 96.8139648,89.0893555 C96.4944645,88.4376595 96.3304851,87.682296 96.3220215,86.8232422 L96.3220215,86.0170898 C96.3220215,84.6248303 96.6468066,83.5457395 97.2963867,82.7797852 C97.9459668,82.0138308 98.8589622,81.6308594 100.0354,81.6308594 C101.000249,81.6308594 101.776771,81.8773576 102.36499,82.3703613 C102.953209,82.8633651 103.312906,83.5626582 103.444092,84.4682617 L102.225342,84.4682617 C101.996825,83.2452738 101.268968,82.6337891 100.041748,82.6337891 C99.2250122,82.6337891 98.6061219,82.9204887 98.1850586,83.4938965 C97.7639953,84.0673043 97.5513509,84.897781 97.5471191,85.9853516 L97.5471191,86.7407227 C97.5471191,87.7775117 97.7840959,88.6016408 98.2580566,89.2131348 C98.7320173,89.8246287 99.3731242,90.1303711 100.181396,90.1303711 C100.63843,90.1303711 101.038328,90.0795904 101.381104,89.9780273 C101.723879,89.8764643 102.007404,89.7050793 102.231689,89.4638672 L102.231689,87.3881836 L100.092529,87.3881836 L100.092529,86.3979492 L103.444092,86.3979492 L103.444092,89.7875977 Z M104.980225,87.5024414 C104.980225,86.8295865 105.112466,86.2244493 105.376953,85.6870117 C105.64144,85.1495741 106.009601,84.7348647 106.481445,84.4428711 C106.95329,84.1508774 107.491778,84.0048828 108.096924,84.0048828 C109.03215,84.0048828 109.788571,84.32861 110.366211,84.9760742 C110.943851,85.6235384 111.232666,86.4846951 111.232666,87.5595703 L111.232666,87.6420898 C111.232666,88.310713 111.104656,88.9105605 110.848633,89.4416504 C110.592609,89.9727403 110.226565,90.3863917 109.750488,90.6826172 C109.274412,90.9788426 108.727461,91.1269531 108.109619,91.1269531 C107.178625,91.1269531 106.424319,90.8032259 105.84668,90.1557617 C105.26904,89.5082975 104.980225,88.6513725 104.980225,87.5849609 L104.980225,87.5024414 Z M106.160889,87.6420898 C106.160889,88.4038124 106.337563,89.0152972 106.690918,89.4765625 C107.044273,89.9378278 107.517168,90.168457 108.109619,90.168457 C108.706302,90.168457 109.180255,89.934654 109.531494,89.467041 C109.882733,88.999428 110.05835,88.344568 110.05835,87.5024414 C110.05835,86.7491824 109.879559,86.1387556 109.521973,85.6711426 C109.164386,85.2035296 108.689375,84.9697266 108.096924,84.9697266 C107.517168,84.9697266 107.049562,85.2003558 106.694092,85.6616211 C106.338621,86.1228864 106.160889,86.7830361 106.160889,87.6420898 Z M112.394287,87.5024414 C112.394287,86.8295865 112.526529,86.2244493 112.791016,85.6870117 C113.055503,85.1495741 113.423663,84.7348647 113.895508,84.4428711 C114.367353,84.1508774 114.90584,84.0048828 115.510986,84.0048828 C116.446212,84.0048828 117.202634,84.32861 117.780273,84.9760742 C118.357913,85.6235384 118.646729,86.4846951 118.646729,87.5595703 L118.646729,87.6420898 C118.646729,88.310713 118.518719,88.9105605 118.262695,89.4416504 C118.006672,89.9727403 117.640627,90.3863917 117.164551,90.6826172 C116.688474,90.9788426 116.141523,91.1269531 115.523682,91.1269531 C114.592687,91.1269531 113.838382,90.8032259 113.260742,90.1557617 C112.683103,89.5082975 112.394287,88.6513725 112.394287,87.5849609 L112.394287,87.5024414 Z M113.574951,87.6420898 C113.574951,88.4038124 113.751626,89.0152972 114.10498,89.4765625 C114.458335,89.9378278 114.931231,90.168457 115.523682,90.168457 C116.120364,90.168457 116.594318,89.934654 116.945557,89.467041 C117.296795,88.999428 117.472412,88.344568 117.472412,87.5024414 C117.472412,86.7491824 117.293622,86.1387556 116.936035,85.6711426 C116.578449,85.2035296 116.103437,84.9697266 115.510986,84.9697266 C114.931231,84.9697266 114.463625,85.2003558 114.108154,85.6616211 C113.752684,86.1228864 113.574951,86.7830361 113.574951,87.6420898 Z M119.840088,87.5087891 C119.840088,86.4381457 120.087644,85.5865103 120.582764,84.9538574 C121.077883,84.3212045 121.733801,84.0048828 122.550537,84.0048828 C123.388432,84.0048828 124.042234,84.3011038 124.511963,84.8935547 L124.569092,84.1318359 L125.641846,84.1318359 L125.641846,90.8349609 C125.641846,91.7236373 125.378421,92.4239883 124.851562,92.9360352 C124.324704,93.448082 123.616948,93.7041016 122.728271,93.7041016 C122.233152,93.7041016 121.748619,93.5983083 121.274658,93.3867188 C120.800697,93.1751292 120.438885,92.8852557 120.189209,92.5170898 L120.798584,91.8125 C121.302167,92.4345734 121.917884,92.7456055 122.645752,92.7456055 C123.217044,92.7456055 123.662433,92.5847998 123.981934,92.2631836 C124.301434,91.9415674 124.461182,91.4887725 124.461182,90.9047852 L124.461182,90.3144531 C123.991453,90.8561225 123.350346,91.1269531 122.537842,91.1269531 C121.733801,91.1269531 121.083173,90.8032259 120.585938,90.1557617 C120.088702,89.5082975 119.840088,88.6259821 119.840088,87.5087891 Z M121.020752,87.6420898 C121.020752,88.4165078 121.179442,89.0248188 121.496826,89.467041 C121.814211,89.9092633 122.258542,90.1303711 122.829834,90.1303711 C123.570398,90.1303711 124.114175,89.7939487 124.461182,89.1210938 L124.461182,85.9853516 C124.101479,85.3294238 123.561934,85.0014648 122.842529,85.0014648 C122.271237,85.0014648 121.82479,85.2236306 121.503174,85.6679688 C121.181558,86.1123069 121.020752,86.7703407 121.020752,87.6420898 Z M128.688721,91 L127.514404,91 L127.514404,81.25 L128.688721,81.25 L128.688721,91 Z M133.417725,91.1269531 C132.48673,91.1269531 131.729251,90.8212107 131.145264,90.2097168 C130.561276,89.5982229 130.269287,88.7804413 130.269287,87.7563477 L130.269287,87.5405273 C130.269287,86.8592088 130.399413,86.2508979 130.659668,85.7155762 C130.919923,85.1802545 131.283852,84.7613134 131.751465,84.4587402 C132.219078,84.1561671 132.725827,84.0048828 133.271729,84.0048828 C134.164637,84.0048828 134.85864,84.2989879 135.35376,84.887207 C135.848879,85.4754261 136.096436,86.3175401 136.096436,87.4135742 L136.096436,87.9023438 L131.443604,87.9023438 C131.460531,88.5794305 131.658364,89.1263814 132.037109,89.5432129 C132.415855,89.9600444 132.897214,90.168457 133.481201,90.168457 C133.895917,90.168457 134.24715,90.0838225 134.534912,89.9145508 C134.822674,89.7452791 135.074462,89.5209975 135.290283,89.2416992 L136.007568,89.800293 C135.432045,90.6847375 134.568772,91.1269531 133.417725,91.1269531 Z M133.271729,84.9697266 C132.797768,84.9697266 132.399985,85.1421695 132.078369,85.4870605 C131.756753,85.8319516 131.557862,86.3154266 131.481689,86.9375 L134.922119,86.9375 L134.922119,86.8486328 C134.888265,86.2519501 134.727459,85.7896338 134.439697,85.4616699 C134.151935,85.133706 133.762616,84.9697266 133.271729,84.9697266 Z" id="Add-to-Google" fill="#FFFFFF"></path>
            <g id="Logo_Google_2013_Official" transform="translate(40.000000, 31.000000)" fill="#FFFFFF">
                <path d="M16.3775591,17.4864811 L20.932223,17.4864811 L20.932223,23.8309226 C19.5111,24.2838966 17.716667,24.5321208 15.8515314,24.5321208 C8.29200538,24.5321208 3.84905161,18.1119499 3.84905161,11.8418355 C3.84905161,5.69232712 7.86778955,1.37855569 13.4745087,1.37855569 C17.0223671,1.37855569 19.0868841,2.57059266 20.933637,4.23103004 L20.933637,6.30096717 L24.3966522,2.86649831 C22.2062845,1.39678685 19.0345642,0 14.501111,0 C4.54900773,0 0,7.06106604 0,12.8641825 C0,21.1242975 6.06628634,26.1 13.6894448,26.1 C17.3857787,26.1 20.6677951,25.5404438 24.4588706,24.4942561 L24.4588706,17.9394552 C24.4588706,17.6042824 24.6073461,17.3742894 24.8293524,17.1723443 L26.025641,15.9859169 L17.9019079,15.9859169 L16.3775591,17.4864811 Z" id="path4423"></path>
                <path d="M36.7861693,9 C31.2504469,9 27.8205128,13.2060828 27.8205128,17.6707828 C27.8205128,21.524464 30.5835912,26.1 36.1821729,26.1 C41.5675795,26.1 44.8717949,21.8853914 44.8717949,17.3425378 C44.8717949,13.1108775 41.6427374,9.00142097 36.7861693,9.00142097 L36.7861693,9 Z M35.8678762,10.2263005 C39.7706219,10.2263005 41.5088196,15.5137444 41.5088196,19.2850091 C41.5088196,24.8935932 37.4625906,25.0044291 36.9788469,25.0044291 C35.1272291,25.0044291 33.8331463,23.8406515 32.8642924,22.3145255 C32.0115917,20.9077613 31.178022,18.2945903 31.178022,15.7411002 C31.178022,13.1975569 31.9787955,11.9556257 33.2387155,11.0419395 C34.2690623,10.3570301 35.2338166,10.2263005 35.8665097,10.2263005 L35.8678762,10.2263005 Z" id="path4425" fill-rule="nonzero"></path>
                <path d="M73.2844701,9 C68.3012026,9 65.6053366,12.1270358 65.6053366,15.6184272 C65.6053366,18.2764076 67.5265285,21.2750116 71.4900431,21.2750116 L72.492894,21.2750116 C72.492894,21.2750116 72.2196453,21.9325268 72.2182368,22.5677059 C72.2182368,23.5044207 72.5576849,24.030712 73.2788361,24.8403909 C66.4588867,25.2522103 63.7179487,27.9785947 63.7179487,30.9087948 C63.7179487,33.4746394 66.196906,36 71.4069417,36 C77.5747563,36 80.7692308,32.6063285 80.7692308,29.275477 C80.7692308,26.9274081 79.5889091,25.6402978 76.6000754,23.4206608 C75.7211724,22.7436017 75.5507441,22.3122383 75.5507441,21.8054909 C75.5507441,21.0795719 75.9887871,20.5993485 76.1493559,20.4178688 C76.4324641,20.1219172 76.9226215,19.7840856 77.1057263,19.6221498 C78.1099857,18.778967 79.5283436,17.5309446 79.5283436,15.0404839 C79.5283436,13.3317822 78.8114179,11.8617962 77.1775598,10.485342 L79.1719935,10.485342 L80.6706359,9 L73.2858786,9 L73.2844701,9 Z M71.9097756,10.1112145 C72.8140316,10.1112145 73.5689868,10.4281061 74.3661969,11.0856212 C75.2507339,11.8757562 76.6634578,13.9990693 76.6634578,16.6263378 C76.6634578,19.4616101 74.4408473,20.237785 73.2379896,20.237785 C72.6492373,20.237785 71.9435796,20.0744532 71.3463762,19.6696138 C70.0195707,18.8166589 68.7026247,16.5467659 68.7026247,13.8455095 C68.7026247,11.4080968 70.1674631,10.1112145 71.9097756,10.1112145 Z M73.8830819,25.9167054 C74.2633765,25.9167054 74.5366252,25.9474174 74.5366252,25.9474174 C74.5366252,25.9474174 75.4338387,26.5825966 76.0606205,27.0572359 C77.5198249,28.2005584 78.4297149,29.0744532 78.4297149,30.6309912 C78.4297149,32.7710563 76.4268301,34.4490461 73.1830582,34.4490461 C69.6223742,34.4490461 66.9011552,32.8059563 66.9011552,30.1228478 C66.9011552,27.9004188 68.7660071,25.9879013 73.8830819,25.9167054 Z" id="path4429" fill-rule="nonzero"></path>
                <path d="M81.5132953,25.2 L88.6554322,25.2 L89.7435897,24.1826884 L87.6952066,23.9434827 C87.1437754,23.8802444 86.8158577,23.4348269 86.8158577,23.0031568 L86.8158577,2.8342668 C86.8158577,2.43696538 87.0129024,2.23350305 87.1570098,2.10427699 L88.4451531,0.9 L82.3544117,0.9 L80.7692308,2.38197556 L83.1367087,2.38197556 L83.1367087,23.2739817 C83.1367087,23.5709267 83.0367159,23.7730143 82.8220253,23.9806008 L81.5132953,25.2 Z" id="path4433"></path>
                <path d="M98.2518808,9 C94.5614393,9 90.6410256,11.9371531 90.6410256,17.2103872 C90.6410256,21.5656723 93.4537626,26.1 98.7091036,26.1 C100.019537,26.1 101.098637,25.9237992 102.109698,25.4392471 C103.194242,24.9177497 104.237962,24.0708493 105,23.0065398 C103.561653,23.7639189 102.388659,24.2612598 100.830563,24.2612598 C97.869501,24.2612598 95.0145798,22.0303307 94.0157656,17.9294 L104.476099,13.5144341 C103.871912,11.2650324 102.168212,9 98.2532416,9 L98.2518808,9 Z M97.5687681,10.2064068 C99.5487063,10.2064068 100.980249,11.9073126 100.980249,13.2387652 C100.980249,13.6693203 100.721701,13.8966761 100.210046,14.1069802 L93.7803503,16.8224614 C93.7803503,16.8224614 93.6061702,15.9769819 93.6061702,15.0632957 C93.6061702,11.230929 96.2596956,10.2064068 97.5687681,10.2064068 Z" id="path4435" fill-rule="nonzero"></path>
                <path d="M55.6323231,9 C50.0966008,9 46.6666667,13.2060828 46.6666667,17.6707828 C46.6666667,21.524464 49.4297451,26.1 55.0283268,26.1 C60.4137333,26.1 63.7179487,21.8853914 63.7179487,17.3425378 C63.7179487,13.1108775 60.4888912,9.00142097 55.6323231,9.00142097 L55.6323231,9 Z M54.71403,10.2263005 C58.6167758,10.2263005 60.3549735,15.5137444 60.3549735,19.2850091 C60.3549735,24.8935932 56.3087444,25.0044291 55.8250007,25.0044291 C53.9733829,25.0044291 52.6793002,23.8406515 51.7104463,22.3145255 C50.8577455,20.9077613 50.0241759,18.2945903 50.0241759,15.7411002 C50.0241759,13.1975569 50.8249493,11.9556257 52.0848694,11.0419395 C53.1152161,10.3570301 54.0799705,10.2263005 54.7126635,10.2263005 L54.71403,10.2263005 Z" id="path4439" fill-rule="nonzero"></path>
            </g>
        </g>
    </g>
</svg>