<?xml version="1.0" encoding="UTF-8"?>
<svg width="188px" height="113px" viewBox="0 0 188 113" version="1.1" xmlns="http://www.w3.org/2000/svg" xmlns:xlink="http://www.w3.org/1999/xlink">
    <!-- Generator: Sketch 52.2 (67145) - http://www.bohemiancoding.com/sketch -->
    <title>Group 2 Copy 4</title>
    <desc>Created with Sketch.</desc>
    <g id="web-reg-typ" stroke="none" stroke-width="1" fill="none" fill-rule="evenodd">
        <g id="Group-2-Copy-4">
            <rect id="Rectangle-Copy-5" fill="#FFFFFF" fill-rule="nonzero" x="0" y="0" width="188" height="113" rx="5"></rect>
            <rect id="Rectangle" fill="#46B29D" fill-rule="nonzero" x="3" y="2" width="182" height="109" rx="5"></rect>
            <path d="M52.267334,88.5878906 L48.3952637,88.5878906 L47.5256348,91 L46.2687988,91 L49.7980957,81.7578125 L50.864502,81.7578125 L54.4001465,91 L53.1496582,91 L52.267334,88.5878906 Z M48.7634277,87.5849609 L51.9055176,87.5849609 L50.3312988,83.262207 L48.7634277,87.5849609 Z M55.1745605,87.5087891 C55.1745605,86.4550729 55.4242325,85.6076692 55.923584,84.9665527 C56.4229354,84.3254362 57.0767375,84.0048828 57.8850098,84.0048828 C58.6890502,84.0048828 59.3259254,84.2799452 59.7956543,84.8300781 L59.7956543,81.25 L60.9699707,81.25 L60.9699707,91 L59.8908691,91 L59.8337402,90.2636719 C59.3640113,90.8391956 58.7102093,91.1269531 57.8723145,91.1269531 C57.0767376,91.1269531 56.4282252,90.80111 55.9267578,90.1494141 C55.4252905,89.4977181 55.1745605,88.6471407 55.1745605,87.5976562 L55.1745605,87.5087891 Z M56.348877,87.6420898 C56.348877,88.4207396 56.5096826,89.0301085 56.8312988,89.4702148 C57.152915,89.9103212 57.5972465,90.1303711 58.1643066,90.1303711 C58.909102,90.1303711 59.4528791,89.7960645 59.7956543,89.1274414 L59.7956543,85.9726562 C59.4444156,85.3251921 58.9048702,85.0014648 58.177002,85.0014648 C57.6014782,85.0014648 57.152915,85.2236306 56.8312988,85.6679688 C56.5096826,86.1123069 56.348877,86.7703407 56.348877,87.6420898 Z M62.5061035,87.5087891 C62.5061035,86.4550729 62.7557755,85.6076692 63.255127,84.9665527 C63.7544784,84.3254362 64.4082805,84.0048828 65.2165527,84.0048828 C66.0205932,84.0048828 66.6574684,84.2799452 67.1271973,84.8300781 L67.1271973,81.25 L68.3015137,81.25 L68.3015137,91 L67.2224121,91 L67.1652832,90.2636719 C66.6955543,90.8391956 66.0417522,91.1269531 65.2038574,91.1269531 C64.4082805,91.1269531 63.7597681,90.80111 63.2583008,90.1494141 C62.7568334,89.4977181 62.5061035,88.6471407 62.5061035,87.5976562 L62.5061035,87.5087891 Z M63.6804199,87.6420898 C63.6804199,88.4207396 63.8412256,89.0301085 64.1628418,89.4702148 C64.484458,89.9103212 64.9287895,90.1303711 65.4958496,90.1303711 C66.240645,90.1303711 66.7844221,89.7960645 67.1271973,89.1274414 L67.1271973,85.9726562 C66.7759585,85.3251921 66.2364131,85.0014648 65.5085449,85.0014648 C64.9330212,85.0014648 64.484458,85.2236306 64.1628418,85.6679688 C63.8412256,86.1123069 63.6804199,86.7703407 63.6804199,87.6420898 Z M74.9348145,82.46875 L74.9348145,84.1318359 L76.217041,84.1318359 L76.217041,85.0395508 L74.9348145,85.0395508 L74.9348145,89.2988281 C74.9348145,89.5738946 74.9919428,89.7801914 75.1062012,89.9177246 C75.2204596,90.0552578 75.4151191,90.1240234 75.6901855,90.1240234 C75.8256029,90.1240234 76.0117989,90.0986331 76.2487793,90.0478516 L76.2487793,91 C75.9398585,91.0846358 75.6394058,91.1269531 75.3474121,91.1269531 C74.8226699,91.1269531 74.4270033,90.9682633 74.1604004,90.6508789 C73.8937975,90.3334945 73.760498,89.8828154 73.760498,89.2988281 L73.760498,85.0395508 L72.5100098,85.0395508 L72.5100098,84.1318359 L73.760498,84.1318359 L73.760498,82.46875 L74.9348145,82.46875 Z M77.1501465,87.5024414 C77.1501465,86.8295865 77.282388,86.2244493 77.546875,85.6870117 C77.811362,85.1495741 78.1795224,84.7348647 78.6513672,84.4428711 C79.123212,84.1508774 79.6616994,84.0048828 80.2668457,84.0048828 C81.2020717,84.0048828 81.9584932,84.32861 82.5361328,84.9760742 C83.1137724,85.6235384 83.4025879,86.4846951 83.4025879,87.5595703 L83.4025879,87.6420898 C83.4025879,88.310713 83.2745781,88.9105605 83.0185547,89.4416504 C82.7625313,89.9727403 82.3964868,90.3863917 81.9204102,90.6826172 C81.4443336,90.9788426 80.8973826,91.1269531 80.279541,91.1269531 C79.3485468,91.1269531 78.5942412,90.8032259 78.0166016,90.1557617 C77.438962,89.5082975 77.1501465,88.6513725 77.1501465,87.5849609 L77.1501465,87.5024414 Z M78.3308105,87.6420898 C78.3308105,88.4038124 78.5074852,89.0152972 78.8608398,89.4765625 C79.2141945,89.9378278 79.6870901,90.168457 80.279541,90.168457 C80.8762237,90.168457 81.3501773,89.934654 81.701416,89.467041 C82.0526548,88.999428 82.2282715,88.344568 82.2282715,87.5024414 C82.2282715,86.7491824 82.049481,86.1387556 81.6918945,85.6711426 C81.3343081,85.2035296 80.8592966,84.9697266 80.2668457,84.9697266 C79.6870902,84.9697266 79.2194842,85.2003558 78.8640137,85.6616211 C78.5085431,86.1228864 78.3308105,86.7830361 78.3308105,87.6420898 Z M89.3693848,91 L88.1950684,91 L88.1950684,84.1318359 L89.3693848,84.1318359 L89.3693848,91 Z M88.0998535,82.3100586 C88.0998535,82.119628 88.1580398,81.9588223 88.2744141,81.8276367 C88.3907883,81.6964512 88.5632313,81.6308594 88.791748,81.6308594 C89.0202648,81.6308594 89.1937657,81.6964512 89.3122559,81.8276367 C89.430746,81.9588223 89.4899902,82.119628 89.4899902,82.3100586 C89.4899902,82.5004892 89.430746,82.6591791 89.3122559,82.7861328 C89.1937657,82.9130866 89.0202648,82.9765625 88.791748,82.9765625 C88.5632313,82.9765625 88.3907883,82.9130866 88.2744141,82.7861328 C88.1580398,82.6591791 88.0998535,82.5004892 88.0998535,82.3100586 Z M98.2307129,88.0673828 C98.1164545,89.0449268 97.7556997,89.7992324 97.1484375,90.3303223 C96.5411753,90.8614122 95.7339731,91.1269531 94.7268066,91.1269531 C93.6350043,91.1269531 92.7600944,90.7355182 92.1020508,89.9526367 C91.4440071,89.1697552 91.1149902,88.1224024 91.1149902,86.8105469 L91.1149902,85.921875 C91.1149902,85.0628212 91.2683904,84.3074577 91.5751953,83.6557617 C91.8820002,83.0040658 92.3168103,82.5036639 92.8796387,82.154541 C93.442467,81.8054182 94.0941532,81.6308594 94.8347168,81.6308594 C95.8164925,81.6308594 96.603594,81.9048638 97.1960449,82.4528809 C97.7884958,83.0008979 98.1333817,83.7594353 98.2307129,84.7285156 L97.0056152,84.7285156 C96.8998204,83.9921838 96.6702492,83.458986 96.3168945,83.1289062 C95.9635399,82.7988265 95.4694856,82.6337891 94.8347168,82.6337891 C94.0560671,82.6337891 93.4456402,82.9215466 93.003418,83.4970703 C92.5611957,84.072594 92.3400879,84.8914335 92.3400879,85.9536133 L92.3400879,86.8486328 C92.3400879,87.8515675 92.5495585,88.6492483 92.9685059,89.2416992 C93.3874533,89.8341501 93.9735477,90.1303711 94.7268066,90.1303711 C95.4038934,90.1303711 95.923338,89.9769709 96.2851562,89.670166 C96.6469745,89.3633611 96.8871251,88.8291054 97.0056152,88.0673828 L98.2307129,88.0673828 Z M103.949951,91 C103.882242,90.8645827 103.82723,90.6233741 103.784912,90.2763672 C103.239011,90.8434273 102.587325,91.1269531 101.829834,91.1269531 C101.152747,91.1269531 100.597333,90.9354674 100.163574,90.5524902 C99.7298155,90.1695131 99.5129395,89.6839222 99.5129395,89.0957031 C99.5129395,88.3805303 99.784828,87.8251159 100.328613,87.4294434 C100.872399,87.0337708 101.637283,86.8359375 102.623291,86.8359375 L103.765869,86.8359375 L103.765869,86.2963867 C103.765869,85.8859029 103.643149,85.5590019 103.397705,85.3156738 C103.152261,85.0723458 102.790448,84.9506836 102.312256,84.9506836 C101.893308,84.9506836 101.542075,85.0564768 101.258545,85.2680664 C100.975015,85.479656 100.833252,85.7356756 100.833252,86.0361328 L99.6525879,86.0361328 C99.6525879,85.6933577 99.7742501,85.3622249 100.017578,85.0427246 C100.260906,84.7232243 100.590981,84.4703785 101.007812,84.2841797 C101.424644,84.0979808 101.882729,84.0048828 102.38208,84.0048828 C103.173425,84.0048828 103.793373,84.2027161 104.241943,84.5983887 C104.690513,84.9940612 104.923258,85.5388963 104.940186,86.2329102 L104.940186,89.394043 C104.940186,90.02458 105.020588,90.5260398 105.181396,90.8984375 L105.181396,91 L103.949951,91 Z M102.001221,90.1049805 C102.369387,90.1049805 102.718504,90.0097666 103.048584,89.8193359 C103.378664,89.6289053 103.617756,89.3813492 103.765869,89.0766602 L103.765869,87.6674805 L102.845459,87.6674805 C101.40665,87.6674805 100.687256,88.0885375 100.687256,88.9306641 C100.687256,89.29883 100.809976,89.5865875 101.05542,89.7939453 C101.300864,90.0013031 101.616128,90.1049805 102.001221,90.1049805 Z M108.056885,91 L106.882568,91 L106.882568,81.25 L108.056885,81.25 L108.056885,91 Z M112.785889,91.1269531 C111.854894,91.1269531 111.097415,90.8212107 110.513428,90.2097168 C109.92944,89.5982229 109.637451,88.7804413 109.637451,87.7563477 L109.637451,87.5405273 C109.637451,86.8592088 109.767577,86.2508979 110.027832,85.7155762 C110.288087,85.1802545 110.652016,84.7613134 111.119629,84.4587402 C111.587242,84.1561671 112.093991,84.0048828 112.639893,84.0048828 C113.532801,84.0048828 114.226804,84.2989879 114.721924,84.887207 C115.217043,85.4754261 115.4646,86.3175401 115.4646,87.4135742 L115.4646,87.9023438 L110.811768,87.9023438 C110.828695,88.5794305 111.026528,89.1263814 111.405273,89.5432129 C111.784019,89.9600444 112.265378,90.168457 112.849365,90.168457 C113.264081,90.168457 113.615314,90.0838225 113.903076,89.9145508 C114.190838,89.7452791 114.442626,89.5209975 114.658447,89.2416992 L115.375732,89.800293 C114.800209,90.6847375 113.936936,91.1269531 112.785889,91.1269531 Z M112.639893,84.9697266 C112.165932,84.9697266 111.768149,85.1421695 111.446533,85.4870605 C111.124917,85.8319516 110.926026,86.3154266 110.849854,86.9375 L114.290283,86.9375 L114.290283,86.8486328 C114.256429,86.2519501 114.095623,85.7896338 113.807861,85.4616699 C113.520099,85.133706 113.13078,84.9697266 112.639893,84.9697266 Z M117.933838,84.1318359 L117.971924,84.9951172 C118.496666,84.3349576 119.182206,84.0048828 120.028564,84.0048828 C121.480069,84.0048828 122.212158,84.8237223 122.224854,86.4614258 L122.224854,91 L121.050537,91 L121.050537,86.4550781 C121.046305,85.9599585 120.933107,85.5939139 120.710938,85.3569336 C120.488768,85.1199532 120.142825,85.0014648 119.673096,85.0014648 C119.292234,85.0014648 118.957928,85.1030263 118.670166,85.3061523 C118.382404,85.5092784 118.158123,85.7758773 117.997314,86.105957 L117.997314,91 L116.822998,91 L116.822998,84.1318359 L117.933838,84.1318359 Z M123.710205,87.5087891 C123.710205,86.4550729 123.959877,85.6076692 124.459229,84.9665527 C124.95858,84.3254362 125.612382,84.0048828 126.420654,84.0048828 C127.224695,84.0048828 127.86157,84.2799452 128.331299,84.8300781 L128.331299,81.25 L129.505615,81.25 L129.505615,91 L128.426514,91 L128.369385,90.2636719 C127.899656,90.8391956 127.245854,91.1269531 126.407959,91.1269531 C125.612382,91.1269531 124.96387,90.80111 124.462402,90.1494141 C123.960935,89.4977181 123.710205,88.6471407 123.710205,87.5976562 L123.710205,87.5087891 Z M124.884521,87.6420898 C124.884521,88.4207396 125.045327,89.0301085 125.366943,89.4702148 C125.68856,89.9103212 126.132891,90.1303711 126.699951,90.1303711 C127.444747,90.1303711 127.988524,89.7960645 128.331299,89.1274414 L128.331299,85.9726562 C127.98006,85.3251921 127.440515,85.0014648 126.712646,85.0014648 C126.137123,85.0014648 125.68856,85.2236306 125.366943,85.6679688 C125.045327,86.1123069 124.884521,86.7703407 124.884521,87.6420898 Z M135.567627,91 C135.499918,90.8645827 135.444906,90.6233741 135.402588,90.2763672 C134.856687,90.8434273 134.205001,91.1269531 133.44751,91.1269531 C132.770423,91.1269531 132.215009,90.9354674 131.78125,90.5524902 C131.347491,90.1695131 131.130615,89.6839222 131.130615,89.0957031 C131.130615,88.3805303 131.402504,87.8251159 131.946289,87.4294434 C132.490074,87.0337708 133.254959,86.8359375 134.240967,86.8359375 L135.383545,86.8359375 L135.383545,86.2963867 C135.383545,85.8859029 135.260825,85.5590019 135.015381,85.3156738 C134.769937,85.0723458 134.408124,84.9506836 133.929932,84.9506836 C133.510984,84.9506836 133.159751,85.0564768 132.876221,85.2680664 C132.592691,85.479656 132.450928,85.7356756 132.450928,86.0361328 L131.270264,86.0361328 C131.270264,85.6933577 131.391926,85.3622249 131.635254,85.0427246 C131.878582,84.7232243 132.208657,84.4703785 132.625488,84.2841797 C133.04232,84.0979808 133.500404,84.0048828 133.999756,84.0048828 C134.791101,84.0048828 135.411049,84.2027161 135.859619,84.5983887 C136.308189,84.9940612 136.540934,85.5388963 136.557861,86.2329102 L136.557861,89.394043 C136.557861,90.02458 136.638264,90.5260398 136.799072,90.8984375 L136.799072,91 L135.567627,91 Z M133.618896,90.1049805 C133.987062,90.1049805 134.33618,90.0097666 134.66626,89.8193359 C134.99634,89.6289053 135.235432,89.3813492 135.383545,89.0766602 L135.383545,87.6674805 L134.463135,87.6674805 C133.024325,87.6674805 132.304932,88.0885375 132.304932,88.9306641 C132.304932,89.29883 132.427652,89.5865875 132.673096,89.7939453 C132.91854,90.0013031 133.233803,90.1049805 133.618896,90.1049805 Z M141.718506,85.1855469 C141.540771,85.1559243 141.348227,85.1411133 141.140869,85.1411133 C140.370683,85.1411133 139.848065,85.4690722 139.572998,86.125 L139.572998,91 L138.398682,91 L138.398682,84.1318359 L139.54126,84.1318359 L139.560303,84.925293 C139.945396,84.3116831 140.491289,84.0048828 141.197998,84.0048828 C141.426515,84.0048828 141.600016,84.0345049 141.718506,84.09375 L141.718506,85.1855469 Z" id="Add-to-iCalendar" fill="#FFFFFF"></path>
            <g id="calendar-day-15" transform="translate(71.000000, 22.000000)" fill="#FFFFFF">
                <polygon id="Path" points="17.553 21.354 18.275 24.635 21.858 22.918 21.912 22.918 21.912 37.827 26.195 37.827 26.195 19.034 22.523 19.034"></polygon>
                <path d="M40.446,2.844 L40.446,5.136 C40.446,7.447 38.55,9.359 36.241,9.359 L36.026,9.359 C33.716,9.359 31.801,7.446 31.801,5.136 L31.801,2.54 L27.201,2.54 L27.201,5.136 C27.201,7.447 25.287,9.359 22.977,9.359 L22.765,9.359 C20.453,9.359 18.557,7.446 18.557,5.136 L18.557,2.54 L13.88,2.54 L13.88,5.136 C13.88,7.447 12.027,9.359 9.717,9.359 L9.503,9.359 C7.192,9.359 5.315,7.446 5.315,5.136 L5.315,2.879 C2.619,3.764 0.716,6.286 0.716,9.258 L0.716,39.144 C0.716,42.855 3.713,45.835 7.424,45.835 L38.421,45.835 C42.132,45.835 45.12,42.855 45.12,39.144 L45.12,9.258 C45.124,6.248 43.142,3.697 40.446,2.844 Z M41.794,38.527 C41.794,40.675 40.067,42.425 37.919,42.425 L7.93,42.425 C5.782,42.425 4.049,40.675 4.049,38.527 L4.049,17.295 C4.049,15.832 5.225,14.671 6.689,14.671 L39.161,14.671 C40.625,14.671 41.795,15.832 41.795,17.295 L41.794,38.527 Z" id="Shape" fill-rule="nonzero"></path>
                <path d="M9.506,7.296 L9.719,7.296 C10.383,7.296 10.973,7.016 11.374,6.549 C11.705,6.165 11.899,5.682 11.899,5.135 L11.899,2.164 C11.899,1.564 11.664,1.02 11.273,0.624 C11.269,0.621 11.269,0.616 11.266,0.613 C11.263,0.61 11.262,0.625 11.26,0.622 C10.863,0.229 10.32,0.002 9.718,0.002 L9.505,0.002 C8.902,0.002 8.358,0.229 7.961,0.622 C7.96,0.625 7.958,0.619 7.955,0.621 C7.951,0.625 7.942,0.624 7.939,0.626 C7.547,1.023 7.3,1.562 7.3,2.163 L7.3,5.136 C7.3,5.682 7.506,6.166 7.837,6.55 C8.239,7.018 8.841,7.296 9.506,7.296 Z" id="Path"></path>
                <path d="M21.515,6.947 C21.519,6.949 21.53,6.952 21.533,6.954 C21.539,6.958 21.551,6.946 21.556,6.95 C21.903,7.179 22.32,7.297 22.767,7.297 L22.768,7.297 L22.98,7.297 C23.356,7.297 23.709,7.219 24.017,7.052 C24.021,7.051 24.023,7.058 24.027,7.056 C24.033,7.052 24.025,7.052 24.033,7.047 C24.705,6.672 25.144,5.959 25.144,5.135 L25.144,2.163 C25.144,1.45 24.818,0.816 24.29,0.415 C24.285,0.412 24.289,0.408 24.285,0.405 L24.289,0.422 C23.924,0.148 23.474,0.003 22.981,0.003 L22.768,0.003 C22.201,0.003 21.685,0.202 21.296,0.555 C21.295,0.555 21.294,0.548 21.294,0.548 C21.289,0.552 21.27,0.552 21.266,0.556 C20.831,0.957 20.543,1.526 20.543,2.164 L20.543,5.138 C20.542,5.888 20.938,6.552 21.515,6.947 Z" id="Path"></path>
                <path d="M36.028,7.296 L36.241,7.296 C36.907,7.296 37.514,7.016 37.919,6.549 C38.25,6.165 38.466,5.682 38.466,5.135 L38.466,2.164 C38.466,1.335 37.989,0.614 37.312,0.24 C37.307,0.238 37.297,0.236 37.294,0.234 C37.239,0.205 37.181,0.179 37.125,0.154 C37.114,0.15 37.104,0.146 37.097,0.142 C37.083,0.137 37.07,0.132 37.056,0.126 C37.035,0.118 37.016,0.11 36.995,0.103 C36.983,0.099 36.974,0.096 36.963,0.092 C36.941,0.084 36.916,0.092 36.894,0.085 C36.689,0.021 36.468,0.002 36.242,0.002 L36.029,0.002 C35.916,0.002 35.82,-0.005 35.711,0.011 C34.656,0.172 33.865,1.066 33.865,2.163 L33.865,5.137 C33.864,6.347 34.817,7.296 36.028,7.296 Z" id="Path"></path>
            </g>
        </g>
    </g>
</svg>