<?xml version="1.0" encoding="UTF-8"?>
<svg width="188px" height="113px" viewBox="0 0 188 113" version="1.1" xmlns="http://www.w3.org/2000/svg" xmlns:xlink="http://www.w3.org/1999/xlink">
    <!-- Generator: Sketch 52.2 (67145) - http://www.bohemiancoding.com/sketch -->
    <title>Group 2</title>
    <desc>Created with Sketch.</desc>
    <g id="web-reg-typ" stroke="none" stroke-width="1" fill="none" fill-rule="evenodd">
        <g id="Desktop-HD-Copy" transform="translate(-1024.000000, -585.000000)">
            <g id="Group-2" transform="translate(1024.000000, 585.000000)">
                <rect id="Rectangle-Copy-5" fill="#FFFFFF" fill-rule="nonzero" x="0" y="0" width="188" height="113" rx="5"></rect>
                <rect id="Rectangle" fill="#3E4D61" fill-rule="nonzero" x="3" y="2" width="182" height="109" rx="5"></rect>
                <path d="M55.5339355,87.3818359 L55.5339355,91 L54.3151855,91 L54.3151855,81.7578125 L57.723877,81.7578125 C58.7352752,81.7578125 59.5276664,82.0159479 60.1010742,82.5322266 C60.674482,83.0485052 60.9611816,83.7319293 60.9611816,84.5825195 C60.9611816,85.4796594 60.6808296,86.1704891 60.1201172,86.6550293 C59.5594047,87.1395695 58.7564343,87.3818359 57.7111816,87.3818359 L55.5339355,87.3818359 Z M55.5339355,86.3852539 L57.723877,86.3852539 C58.3755729,86.3852539 58.8749169,86.2318537 59.2219238,85.9250488 C59.5689308,85.6182439 59.7424316,85.1749703 59.7424316,84.5952148 C59.7424316,84.0450819 59.5689308,83.6049821 59.2219238,83.2749023 C58.8749169,82.9448226 58.3988474,82.7734376 57.7937012,82.7607422 L55.5339355,82.7607422 L55.5339355,86.3852539 Z M65.6520996,85.1855469 C65.4743643,85.1559243 65.2818207,85.1411133 65.0744629,85.1411133 C64.3042767,85.1411133 63.7816583,85.4690722 63.5065918,86.125 L63.5065918,91 L62.3322754,91 L62.3322754,84.1318359 L63.4748535,84.1318359 L63.4938965,84.925293 C63.8789896,84.3116831 64.4248825,84.0048828 65.1315918,84.0048828 C65.3601086,84.0048828 65.5336094,84.0345049 65.6520996,84.09375 L65.6520996,85.1855469 Z M68.0070801,91 L66.8327637,91 L66.8327637,84.1318359 L68.0070801,84.1318359 L68.0070801,91 Z M66.7375488,82.3100586 C66.7375488,82.119628 66.7957351,81.9588223 66.9121094,81.8276367 C67.0284837,81.6964512 67.2009266,81.6308594 67.4294434,81.6308594 C67.6579601,81.6308594 67.831461,81.6964512 67.9499512,81.8276367 C68.0684413,81.9588223 68.1276855,82.119628 68.1276855,82.3100586 C68.1276855,82.5004892 68.0684413,82.6591791 67.9499512,82.7861328 C67.831461,82.9130866 67.6579601,82.9765625 67.4294434,82.9765625 C67.2009266,82.9765625 67.0284837,82.9130866 66.9121094,82.7861328 C66.7957351,82.6591791 66.7375488,82.5004892 66.7375488,82.3100586 Z M70.9968262,84.1318359 L71.0349121,84.9951172 C71.5596543,84.3349576 72.2451943,84.0048828 73.0915527,84.0048828 C74.5430574,84.0048828 75.2751464,84.8237223 75.2878418,86.4614258 L75.2878418,91 L74.1135254,91 L74.1135254,86.4550781 C74.1092936,85.9599585 73.9960949,85.5939139 73.7739258,85.3569336 C73.5517567,85.1199532 73.2058129,85.0014648 72.736084,85.0014648 C72.3552227,85.0014648 72.0209162,85.1030263 71.7331543,85.3061523 C71.4453924,85.5092784 71.2211108,85.7758773 71.0603027,86.105957 L71.0603027,91 L69.8859863,91 L69.8859863,84.1318359 L70.9968262,84.1318359 Z M78.6520996,82.46875 L78.6520996,84.1318359 L79.9343262,84.1318359 L79.9343262,85.0395508 L78.6520996,85.0395508 L78.6520996,89.2988281 C78.6520996,89.5738946 78.7092279,89.7801914 78.8234863,89.9177246 C78.9377447,90.0552578 79.1324042,90.1240234 79.4074707,90.1240234 C79.542888,90.1240234 79.7290841,90.0986331 79.9660645,90.0478516 L79.9660645,91 C79.6571436,91.0846358 79.3566909,91.1269531 79.0646973,91.1269531 C78.5399551,91.1269531 78.1442884,90.9682633 77.8776855,90.6508789 C77.6110827,90.3334945 77.4777832,89.8828154 77.4777832,89.2988281 L77.4777832,85.0395508 L76.2272949,85.0395508 L76.2272949,84.1318359 L77.4777832,84.1318359 L77.4777832,82.46875 L78.6520996,82.46875 Z M90.8395996,82.7607422 L87.8688965,82.7607422 L87.8688965,91 L86.6564941,91 L86.6564941,82.7607422 L83.6921387,82.7607422 L83.6921387,81.7578125 L90.8395996,81.7578125 L90.8395996,82.7607422 Z M93.2009277,84.9633789 C93.7214381,84.3243783 94.3985147,84.0048828 95.2321777,84.0048828 C96.6836824,84.0048828 97.4157714,84.8237223 97.4284668,86.4614258 L97.4284668,91 L96.2541504,91 L96.2541504,86.4550781 C96.2499186,85.9599585 96.1367199,85.5939139 95.9145508,85.3569336 C95.6923817,85.1199532 95.3464379,85.0014648 94.876709,85.0014648 C94.4958477,85.0014648 94.1615412,85.1030263 93.8737793,85.3061523 C93.5860174,85.5092784 93.3617358,85.7758773 93.2009277,86.105957 L93.2009277,91 L92.0266113,91 L92.0266113,81.25 L93.2009277,81.25 L93.2009277,84.9633789 Z M100.462646,91 L99.2883301,91 L99.2883301,84.1318359 L100.462646,84.1318359 L100.462646,91 Z M99.1931152,82.3100586 C99.1931152,82.119628 99.2513015,81.9588223 99.3676758,81.8276367 C99.4840501,81.6964512 99.656493,81.6308594 99.8850098,81.6308594 C100.113527,81.6308594 100.287027,81.6964512 100.405518,81.8276367 C100.524008,81.9588223 100.583252,82.119628 100.583252,82.3100586 C100.583252,82.5004892 100.524008,82.6591791 100.405518,82.7861328 C100.287027,82.9130866 100.113527,82.9765625 99.8850098,82.9765625 C99.656493,82.9765625 99.4840501,82.9130866 99.3676758,82.7861328 C99.2513015,82.6591791 99.1931152,82.5004892 99.1931152,82.3100586 Z M106.340576,89.1782227 C106.340576,88.8608383 106.22103,88.6143401 105.981934,88.4387207 C105.742837,88.2631013 105.326012,88.111817 104.731445,87.9848633 C104.136879,87.8579095 103.665041,87.7055673 103.315918,87.527832 C102.966795,87.3500968 102.70866,87.1385103 102.541504,86.8930664 C102.374348,86.6476225 102.290771,86.3556332 102.290771,86.0170898 C102.290771,85.4542615 102.528806,84.9781921 103.004883,84.5888672 C103.480959,84.1995423 104.08927,84.0048828 104.829834,84.0048828 C105.608484,84.0048828 106.240069,84.2058899 106.724609,84.6079102 C107.20915,85.0099304 107.451416,85.5240854 107.451416,86.1503906 L106.270752,86.1503906 C106.270752,85.8287744 106.134279,85.5515962 105.861328,85.3188477 C105.588378,85.0860991 105.24455,84.9697266 104.829834,84.9697266 C104.402423,84.9697266 104.068116,85.0628246 103.826904,85.2490234 C103.585692,85.4352223 103.465088,85.6785467 103.465088,85.9790039 C103.465088,86.262534 103.577229,86.4762363 103.801514,86.6201172 C104.025799,86.7639981 104.430987,86.9015293 105.01709,87.0327148 C105.603193,87.1639004 106.078205,87.3204744 106.442139,87.5024414 C106.806073,87.6844085 107.075845,87.9034004 107.251465,88.1594238 C107.427084,88.4154472 107.514893,88.7275372 107.514893,89.0957031 C107.514893,89.709313 107.269452,90.2012514 106.778564,90.5715332 C106.287677,90.941815 105.650801,91.1269531 104.86792,91.1269531 C104.317787,91.1269531 103.831138,91.0296234 103.407959,90.8349609 C102.98478,90.6402985 102.653647,90.3684099 102.414551,90.0192871 C102.175455,89.6701643 102.055908,89.2924825 102.055908,88.8862305 L103.230225,88.8862305 C103.251384,89.2797871 103.409015,89.5918771 103.703125,89.8225098 C103.997235,90.0531424 104.385496,90.168457 104.86792,90.168457 C105.312258,90.168457 105.668781,90.0785328 105.9375,89.8986816 C106.206219,89.7188305 106.340576,89.4786799 106.340576,89.1782227 Z M113.665771,87.3818359 L113.665771,91 L112.447021,91 L112.447021,81.7578125 L115.855713,81.7578125 C116.867111,81.7578125 117.659502,82.0159479 118.23291,82.5322266 C118.806318,83.0485052 119.093018,83.7319293 119.093018,84.5825195 C119.093018,85.4796594 118.812666,86.1704891 118.251953,86.6550293 C117.691241,87.1395695 116.88827,87.3818359 115.843018,87.3818359 L113.665771,87.3818359 Z M113.665771,86.3852539 L115.855713,86.3852539 C116.507409,86.3852539 117.006753,86.2318537 117.35376,85.9250488 C117.700767,85.6182439 117.874268,85.1749703 117.874268,84.5952148 C117.874268,84.0450819 117.700767,83.6049821 117.35376,83.2749023 C117.006753,82.9448226 116.530683,82.7734376 115.925537,82.7607422 L113.665771,82.7607422 L113.665771,86.3852539 Z M124.634521,91 C124.566813,90.8645827 124.5118,90.6233741 124.469482,90.2763672 C123.923581,90.8434273 123.271895,91.1269531 122.514404,91.1269531 C121.837318,91.1269531 121.281903,90.9354674 120.848145,90.5524902 C120.414386,90.1695131 120.19751,89.6839222 120.19751,89.0957031 C120.19751,88.3805303 120.469398,87.8251159 121.013184,87.4294434 C121.556969,87.0337708 122.321854,86.8359375 123.307861,86.8359375 L124.450439,86.8359375 L124.450439,86.2963867 C124.450439,85.8859029 124.327719,85.5590019 124.082275,85.3156738 C123.836831,85.0723458 123.475019,84.9506836 122.996826,84.9506836 C122.577879,84.9506836 122.226645,85.0564768 121.943115,85.2680664 C121.659585,85.479656 121.517822,85.7356756 121.517822,86.0361328 L120.337158,86.0361328 C120.337158,85.6933577 120.45882,85.3622249 120.702148,85.0427246 C120.945476,84.7232243 121.275551,84.4703785 121.692383,84.2841797 C122.109214,84.0979808 122.567299,84.0048828 123.06665,84.0048828 C123.857995,84.0048828 124.477944,84.2027161 124.926514,84.5983887 C125.375084,84.9940612 125.607829,85.5388963 125.624756,86.2329102 L125.624756,89.394043 C125.624756,90.02458 125.705159,90.5260398 125.865967,90.8984375 L125.865967,91 L124.634521,91 Z M122.685791,90.1049805 C123.053957,90.1049805 123.403075,90.0097666 123.733154,89.8193359 C124.063234,89.6289053 124.302327,89.3813492 124.450439,89.0766602 L124.450439,87.6674805 L123.530029,87.6674805 C122.09122,87.6674805 121.371826,88.0885375 121.371826,88.9306641 C121.371826,89.29883 121.494546,89.5865875 121.73999,89.7939453 C121.985434,90.0013031 122.300698,90.1049805 122.685791,90.1049805 Z M127.186279,87.5087891 C127.186279,86.4381457 127.433835,85.5865103 127.928955,84.9538574 C128.424075,84.3212045 129.079993,84.0048828 129.896729,84.0048828 C130.734623,84.0048828 131.388425,84.3011038 131.858154,84.8935547 L131.915283,84.1318359 L132.988037,84.1318359 L132.988037,90.8349609 C132.988037,91.7236373 132.724612,92.4239883 132.197754,92.9360352 C131.670896,93.448082 130.963139,93.7041016 130.074463,93.7041016 C129.579343,93.7041016 129.09481,93.5983083 128.62085,93.3867188 C128.146889,93.1751292 127.785076,92.8852557 127.5354,92.5170898 L128.144775,91.8125 C128.648359,92.4345734 129.264075,92.7456055 129.991943,92.7456055 C130.563235,92.7456055 131.008625,92.5847998 131.328125,92.2631836 C131.647625,91.9415674 131.807373,91.4887725 131.807373,90.9047852 L131.807373,90.3144531 C131.337644,90.8561225 130.696537,91.1269531 129.884033,91.1269531 C129.079993,91.1269531 128.429364,90.8032259 127.932129,90.1557617 C127.434893,89.5082975 127.186279,88.6259821 127.186279,87.5087891 Z M128.366943,87.6420898 C128.366943,88.4165078 128.525633,89.0248188 128.843018,89.467041 C129.160402,89.9092633 129.604733,90.1303711 130.176025,90.1303711 C130.916589,90.1303711 131.460366,89.7939487 131.807373,89.1210938 L131.807373,85.9853516 C131.447671,85.3294238 130.908125,85.0014648 130.188721,85.0014648 C129.617429,85.0014648 129.170981,85.2236306 128.849365,85.6679688 C128.527749,86.1123069 128.366943,86.7703407 128.366943,87.6420898 Z M137.609131,91.1269531 C136.678137,91.1269531 135.920657,90.8212107 135.33667,90.2097168 C134.752683,89.5982229 134.460693,88.7804413 134.460693,87.7563477 L134.460693,87.5405273 C134.460693,86.8592088 134.590819,86.2508979 134.851074,85.7155762 C135.111329,85.1802545 135.475258,84.7613134 135.942871,84.4587402 C136.410484,84.1561671 136.917234,84.0048828 137.463135,84.0048828 C138.356043,84.0048828 139.050046,84.2989879 139.545166,84.887207 C140.040286,85.4754261 140.287842,86.3175401 140.287842,87.4135742 L140.287842,87.9023438 L135.63501,87.9023438 C135.651937,88.5794305 135.84977,89.1263814 136.228516,89.5432129 C136.607261,89.9600444 137.08862,90.168457 137.672607,90.168457 C138.087323,90.168457 138.438557,90.0838225 138.726318,89.9145508 C139.01408,89.7452791 139.265868,89.5209975 139.481689,89.2416992 L140.198975,89.800293 C139.623451,90.6847375 138.760178,91.1269531 137.609131,91.1269531 Z M137.463135,84.9697266 C136.989174,84.9697266 136.591392,85.1421695 136.269775,85.4870605 C135.948159,85.8319516 135.749268,86.3154266 135.673096,86.9375 L139.113525,86.9375 L139.113525,86.8486328 C139.079671,86.2519501 138.918865,85.7896338 138.631104,85.4616699 C138.343342,85.133706 137.954023,84.9697266 137.463135,84.9697266 Z" id="Print-This-Page" fill="#FFFFFF"></path>
                <path d="M108.999931,40.0000381 C109.833262,40.0000381 110.541594,40.2917044 111.124926,40.8750361 C111.708257,41.4583677 111.999924,42.1667 111.999924,43.000031 L111.999924,51.2500113 C111.999924,51.4583438 111.927007,51.6354274 111.781174,51.7812601 C111.635342,51.9270927 111.458258,52.0000095 111.249925,52.0000095 L107.999933,52.0000095 L107.999933,58.499994 C107.999933,58.91666 107.854101,59.2708252 107.562434,59.5624915 C107.270768,59.8541578 106.916603,59.9999905 106.499937,59.9999905 L85.4999869,59.9999905 C85.0833209,59.9999905 84.7291557,59.8541578 84.4374894,59.5624915 C84.1458231,59.2708252 83.9999905,58.91666 83.9999905,58.499994 L83.9999905,52.0000095 L80.7499982,52.0000095 C80.5416657,52.0000095 80.3645821,51.9270927 80.2187495,51.7812601 C80.0729168,51.6354274 80,51.4583438 80,51.2500113 L80,43.000031 C80,42.1667 80.2916663,41.4583677 80.8749979,40.8750361 C81.4583295,40.2917044 82.1666618,40.0000381 82.9999928,40.0000381 L83.9999905,40.0000381 L83.9999905,29.5000632 C83.9999905,29.0833972 84.1458231,28.729232 84.4374894,28.4375657 C84.7291557,28.1458994 85.0833209,28.0000668 85.4999869,28.0000668 L102.874945,28.0000668 C103.291611,28.0000668 103.645777,28.1458994 103.937443,28.4375657 L107.562434,32.0625571 C107.854101,32.3542234 107.999933,32.7083885 107.999933,33.1250545 L107.999933,40.0000381 L108.999931,40.0000381 Z M103.999943,56 L103.999943,50.0000143 L87.9999809,50.0000143 L87.9999809,56 L103.999943,56 Z M87.9999809,42.0000334 L103.999943,42.0000334 L103.999943,36.0000477 L101.499949,36.0000477 C101.083283,36.0000477 100.729118,35.854215 100.437451,35.5625487 C100.145785,35.2708824 99.9999523,34.9167173 99.9999523,34.5000513 L99.9999523,32.0000572 L87.9999809,32.0000572 L87.9999809,42.0000334 Z M106.999936,46.5000226 C107.416602,46.5000226 107.770767,46.35419 108.062433,46.0625237 C108.354099,45.7708574 108.499932,45.4166922 108.499932,45.0000262 C108.499932,44.5833602 108.354099,44.229195 108.062433,43.9375288 C107.770767,43.6458625 107.416602,43.5000298 106.999936,43.5000298 C106.58327,43.5000298 106.229104,43.6458625 105.937438,43.9375288 C105.645772,44.229195 105.499939,44.5833602 105.499939,45.0000262 C105.499939,45.4166922 105.645772,45.7708574 105.937438,46.0625237 C106.229104,46.35419 106.58327,46.5000226 106.999936,46.5000226 Z" id="Print" fill="#FFFFFF"></path>
            </g>
        </g>
    </g>
</svg>