<?xml version="1.0" encoding="UTF-8"?>
<svg width="188px" height="113px" viewBox="0 0 188 113" version="1.1" xmlns="http://www.w3.org/2000/svg" xmlns:xlink="http://www.w3.org/1999/xlink">
    <!-- Generator: Sketch 52.2 (67145) - http://www.bohemiancoding.com/sketch -->
    <title>Group 2 Copy 2</title>
    <desc>Created with Sketch.</desc>
    <g id="web-reg-typ" stroke="none" stroke-width="1" fill="none" fill-rule="evenodd">
        <g id="Group-2-Copy-2">
            <rect id="Rectangle-Copy-5" fill="#FFFFFF" fill-rule="nonzero" x="0" y="0" width="188" height="113" rx="5"></rect>
            <rect id="Rectangle" fill="#0072C5" fill-rule="nonzero" x="3" y="2" width="182" height="109" rx="5"></rect>
            <path d="M58.6582031,88.5878906 L54.7861328,88.5878906 L53.9165039,91 L52.659668,91 L56.1889648,81.7578125 L57.2553711,81.7578125 L60.7910156,91 L59.5405273,91 L58.6582031,88.5878906 Z M55.1542969,87.5849609 L58.2963867,87.5849609 L56.722168,83.262207 L55.1542969,87.5849609 Z M61.5654297,87.5087891 C61.5654297,86.4550729 61.8151017,85.6076692 62.3144531,84.9665527 C62.8138046,84.3254362 63.4676066,84.0048828 64.2758789,84.0048828 C65.0799194,84.0048828 65.7167945,84.2799452 66.1865234,84.8300781 L66.1865234,81.25 L67.3608398,81.25 L67.3608398,91 L66.2817383,91 L66.2246094,90.2636719 C65.7548805,90.8391956 65.1010784,91.1269531 64.2631836,91.1269531 C63.4676067,91.1269531 62.8190943,90.80111 62.317627,90.1494141 C61.8161596,89.4977181 61.5654297,88.6471407 61.5654297,87.5976562 L61.5654297,87.5087891 Z M62.7397461,87.6420898 C62.7397461,88.4207396 62.9005518,89.0301085 63.222168,89.4702148 C63.5437842,89.9103212 63.9881157,90.1303711 64.5551758,90.1303711 C65.2999712,90.1303711 65.8437483,89.7960645 66.1865234,89.1274414 L66.1865234,85.9726562 C65.8352847,85.3251921 65.2957393,85.0014648 64.5678711,85.0014648 C63.9923474,85.0014648 63.5437842,85.2236306 63.222168,85.6679688 C62.9005518,86.1123069 62.7397461,86.7703407 62.7397461,87.6420898 Z M68.8969727,87.5087891 C68.8969727,86.4550729 69.1466446,85.6076692 69.6459961,84.9665527 C70.1453475,84.3254362 70.7991496,84.0048828 71.6074219,84.0048828 C72.4114624,84.0048828 73.0483375,84.2799452 73.5180664,84.8300781 L73.5180664,81.25 L74.6923828,81.25 L74.6923828,91 L73.6132812,91 L73.5561523,90.2636719 C73.0864234,90.8391956 72.4326214,91.1269531 71.5947266,91.1269531 C70.7991497,91.1269531 70.1506373,90.80111 69.6491699,90.1494141 C69.1477026,89.4977181 68.8969727,88.6471407 68.8969727,87.5976562 L68.8969727,87.5087891 Z M70.0712891,87.6420898 C70.0712891,88.4207396 70.2320947,89.0301085 70.5537109,89.4702148 C70.8753271,89.9103212 71.3196586,90.1303711 71.8867188,90.1303711 C72.6315141,90.1303711 73.1752913,89.7960645 73.5180664,89.1274414 L73.5180664,85.9726562 C73.1668277,85.3251921 72.6272823,85.0014648 71.8994141,85.0014648 C71.3238904,85.0014648 70.8753271,85.2236306 70.5537109,85.6679688 C70.2320947,86.1123069 70.0712891,86.7703407 70.0712891,87.6420898 Z M81.3256836,82.46875 L81.3256836,84.1318359 L82.6079102,84.1318359 L82.6079102,85.0395508 L81.3256836,85.0395508 L81.3256836,89.2988281 C81.3256836,89.5738946 81.3828119,89.7801914 81.4970703,89.9177246 C81.6113287,90.0552578 81.8059882,90.1240234 82.0810547,90.1240234 C82.216472,90.1240234 82.4026681,90.0986331 82.6396484,90.0478516 L82.6396484,91 C82.3307276,91.0846358 82.0302749,91.1269531 81.7382812,91.1269531 C81.213539,91.1269531 80.8178724,90.9682633 80.5512695,90.6508789 C80.2846666,90.3334945 80.1513672,89.8828154 80.1513672,89.2988281 L80.1513672,85.0395508 L78.9008789,85.0395508 L78.9008789,84.1318359 L80.1513672,84.1318359 L80.1513672,82.46875 L81.3256836,82.46875 Z M83.5410156,87.5024414 C83.5410156,86.8295865 83.6732571,86.2244493 83.9377441,85.6870117 C84.2022311,85.1495741 84.5703915,84.7348647 85.0422363,84.4428711 C85.5140811,84.1508774 86.0525686,84.0048828 86.6577148,84.0048828 C87.5929409,84.0048828 88.3493623,84.32861 88.927002,84.9760742 C89.5046416,85.6235384 89.793457,86.4846951 89.793457,87.5595703 L89.793457,87.6420898 C89.793457,88.310713 89.6654472,88.9105605 89.4094238,89.4416504 C89.1534004,89.9727403 88.7873559,90.3863917 88.3112793,90.6826172 C87.8352027,90.9788426 87.2882518,91.1269531 86.6704102,91.1269531 C85.7394159,91.1269531 84.9851103,90.8032259 84.4074707,90.1557617 C83.8298311,89.5082975 83.5410156,88.6513725 83.5410156,87.5849609 L83.5410156,87.5024414 Z M84.7216797,87.6420898 C84.7216797,88.4038124 84.8983544,89.0152972 85.251709,89.4765625 C85.6050636,89.9378278 86.0779593,90.168457 86.6704102,90.168457 C87.2670928,90.168457 87.7410464,89.934654 88.0922852,89.467041 C88.4435239,88.999428 88.6191406,88.344568 88.6191406,87.5024414 C88.6191406,86.7491824 88.4403501,86.1387556 88.0827637,85.6711426 C87.7251772,85.2035296 87.2501657,84.9697266 86.6577148,84.9697266 C86.0779593,84.9697266 85.6103533,85.2003558 85.2548828,85.6616211 C84.8994123,86.1228864 84.7216797,86.7830361 84.7216797,87.6420898 Z M101.777832,86.6772461 C101.777832,87.5828496 101.62549,88.3731249 101.320801,89.0480957 C101.016112,89.7230665 100.584475,90.2382795 100.025879,90.59375 C99.4672824,90.9492205 98.8155962,91.1269531 98.0708008,91.1269531 C97.3429326,91.1269531 96.697594,90.9481626 96.1347656,90.5905762 C95.5719373,90.2329897 95.1350113,89.7230665 94.8239746,89.060791 C94.5129379,88.3985156 94.3531901,87.6315148 94.3447266,86.7597656 L94.3447266,86.0932617 C94.3447266,85.2045854 94.4991847,84.4195998 94.8081055,83.7382812 C95.1170263,83.0569627 95.5539523,82.5354022 96.1188965,82.173584 C96.6838407,81.8117658 97.3302372,81.6308594 98.0581055,81.6308594 C98.7986691,81.6308594 99.4514132,81.8096499 100.016357,82.1672363 C100.581302,82.5248228 101.016112,83.0432095 101.320801,83.7224121 C101.62549,84.4016147 101.777832,85.19189 101.777832,86.0932617 L101.777832,86.6772461 Z M100.56543,86.0805664 C100.56543,84.9845323 100.34538,84.1434762 99.9052734,83.557373 C99.4651671,82.9712699 98.8494506,82.6782227 98.0581055,82.6782227 C97.2879193,82.6782227 96.6817242,82.9712699 96.239502,83.557373 C95.7972797,84.1434762 95.5698243,84.957026 95.5571289,85.9980469 L95.5571289,86.6772461 C95.5571289,87.7394259 95.7803526,88.5741343 96.2268066,89.1813965 C96.6732607,89.7886586 97.2879193,90.0922852 98.0708008,90.0922852 C98.8579141,90.0922852 99.467283,89.8055855 99.8989258,89.2321777 C100.330569,88.6587699 100.552734,87.8367567 100.56543,86.7661133 L100.56543,86.0805664 Z M107.662109,90.3208008 C107.205076,90.8582384 106.534347,91.1269531 105.649902,91.1269531 C104.917802,91.1269531 104.360272,90.9143088 103.977295,90.4890137 C103.594318,90.0637186 103.400716,89.434249 103.396484,88.6005859 L103.396484,84.1318359 L104.570801,84.1318359 L104.570801,88.5688477 C104.570801,89.6098685 104.993974,90.1303711 105.840332,90.1303711 C106.737472,90.1303711 107.334146,89.7960645 107.630371,89.1274414 L107.630371,84.1318359 L108.804688,84.1318359 L108.804688,91 L107.6875,91 L107.662109,90.3208008 Z M112.181641,82.46875 L112.181641,84.1318359 L113.463867,84.1318359 L113.463867,85.0395508 L112.181641,85.0395508 L112.181641,89.2988281 C112.181641,89.5738946 112.238769,89.7801914 112.353027,89.9177246 C112.467286,90.0552578 112.661945,90.1240234 112.937012,90.1240234 C113.072429,90.1240234 113.258625,90.0986331 113.495605,90.0478516 L113.495605,91 C113.186685,91.0846358 112.886232,91.1269531 112.594238,91.1269531 C112.069496,91.1269531 111.673829,90.9682633 111.407227,90.6508789 C111.140624,90.3334945 111.007324,89.8828154 111.007324,89.2988281 L111.007324,85.0395508 L109.756836,85.0395508 L109.756836,84.1318359 L111.007324,84.1318359 L111.007324,82.46875 L112.181641,82.46875 Z M116.11084,91 L114.936523,91 L114.936523,81.25 L116.11084,81.25 L116.11084,91 Z M117.678711,87.5024414 C117.678711,86.8295865 117.810952,86.2244493 118.075439,85.6870117 C118.339926,85.1495741 118.708087,84.7348647 119.179932,84.4428711 C119.651776,84.1508774 120.190264,84.0048828 120.79541,84.0048828 C121.730636,84.0048828 122.487058,84.32861 123.064697,84.9760742 C123.642337,85.6235384 123.931152,86.4846951 123.931152,87.5595703 L123.931152,87.6420898 C123.931152,88.310713 123.803143,88.9105605 123.547119,89.4416504 C123.291096,89.9727403 122.925051,90.3863917 122.448975,90.6826172 C121.972898,90.9788426 121.425947,91.1269531 120.808105,91.1269531 C119.877111,91.1269531 119.122806,90.8032259 118.545166,90.1557617 C117.967526,89.5082975 117.678711,88.6513725 117.678711,87.5849609 L117.678711,87.5024414 Z M118.859375,87.6420898 C118.859375,88.4038124 119.03605,89.0152972 119.389404,89.4765625 C119.742759,89.9378278 120.215655,90.168457 120.808105,90.168457 C121.404788,90.168457 121.878742,89.934654 122.22998,89.467041 C122.581219,88.999428 122.756836,88.344568 122.756836,87.5024414 C122.756836,86.7491824 122.578045,86.1387556 122.220459,85.6711426 C121.862873,85.2035296 121.387861,84.9697266 120.79541,84.9697266 C120.215655,84.9697266 119.748049,85.2003558 119.392578,85.6616211 C119.037108,86.1228864 118.859375,86.7830361 118.859375,87.6420898 Z M125.092773,87.5024414 C125.092773,86.8295865 125.225015,86.2244493 125.489502,85.6870117 C125.753989,85.1495741 126.122149,84.7348647 126.593994,84.4428711 C127.065839,84.1508774 127.604326,84.0048828 128.209473,84.0048828 C129.144699,84.0048828 129.90112,84.32861 130.47876,84.9760742 C131.056399,85.6235384 131.345215,86.4846951 131.345215,87.5595703 L131.345215,87.6420898 C131.345215,88.310713 131.217205,88.9105605 130.961182,89.4416504 C130.705158,89.9727403 130.339114,90.3863917 129.863037,90.6826172 C129.386961,90.9788426 128.84001,91.1269531 128.222168,91.1269531 C127.291174,91.1269531 126.536868,90.8032259 125.959229,90.1557617 C125.381589,89.5082975 125.092773,88.6513725 125.092773,87.5849609 L125.092773,87.5024414 Z M126.273438,87.6420898 C126.273438,88.4038124 126.450112,89.0152972 126.803467,89.4765625 C127.156821,89.9378278 127.629717,90.168457 128.222168,90.168457 C128.818851,90.168457 129.292804,89.934654 129.644043,89.467041 C129.995282,88.999428 130.170898,88.344568 130.170898,87.5024414 C130.170898,86.7491824 129.992108,86.1387556 129.634521,85.6711426 C129.276935,85.2035296 128.801924,84.9697266 128.209473,84.9697266 C127.629717,84.9697266 127.162111,85.2003558 126.806641,85.6616211 C126.45117,86.1228864 126.273438,86.7830361 126.273438,87.6420898 Z M134.734863,87.8198242 L133.998535,88.5878906 L133.998535,91 L132.824219,91 L132.824219,81.25 L133.998535,81.25 L133.998535,87.1469727 L134.626953,86.3916016 L136.766113,84.1318359 L138.194336,84.1318359 L135.521973,87.0009766 L138.505371,91 L137.12793,91 L134.734863,87.8198242 Z" id="Add-to-Outlook" fill="#FFFFFF"></path>
            <g id="Group-2" transform="translate(39.000000, 32.000000)" fill="#FFFFFF">
                <g id="outlook" transform="translate(0.000000, 1.000000)">
                    <path d="M14.6983333,0.190642405 C14.5083333,0.0339692703 14.2566667,-0.0310334134 14.0133333,0.0139684445 L0.68,2.51407166 C0.285,2.58740802 0,2.93075553 0,3.33243878 L0,21.666529 C0,22.0665456 0.285,22.4115598 0.68,22.4848962 L14.0133333,24.9849994 C14.0633333,24.9949998 14.1166667,25 14.1666667,25 C14.3583333,25 14.5483333,24.9333306 14.6983333,24.8083254 C14.89,24.6499855 15,24.4133091 15,24.1666323 L15,0.832335564 C15,0.583991978 14.89,0.348982276 14.6983333,0.190642405 Z M13.3333333,23.1615908 L1.66666667,20.9748338 L1.66666667,4.02413401 L13.3333333,1.83737706 L13.3333333,23.1615908 Z" id="Shape" fill-rule="nonzero"></path>
                    <path d="M8,8 C5.7952,8 4,10.2433333 4,13 C4,15.7566667 5.7952,18 8,18 C10.2048,18 12,15.7566667 12,13 C12,10.2433333 10.2048,8 8,8 Z M8,16.3333333 C6.6768,16.3333333 5.6,14.8383333 5.6,13 C5.6,11.1616667 6.6768,9.66666667 8,9.66666667 C9.3232,9.66666667 10.4,11.1616667 10.4,13 C10.4,14.8383333 9.3232,16.3333333 8,16.3333333 Z" id="Shape" fill-rule="nonzero"></path>
                    <path d="M26.125,5 L13.875,5 C13.392,5 13,5.37333333 13,5.83333333 C13,6.29333333 13.392,6.66666667 13.875,6.66666667 L25.25,6.66666667 L25.25,18.3333333 L13.875,18.3333333 C13.392,18.3333333 13,18.7066667 13,19.1666667 C13,19.6266667 13.392,20 13.875,20 L26.125,20 C26.608,20 27,19.6266667 27,19.1666667 L27,5.83333333 C27,5.37333333 26.608,5 26.125,5 Z" id="Path"></path>
                    <path d="M26.8281564,5.34345058 C26.5502724,4.95600216 26.040006,4.88491071 25.6889947,5.18882667 L18.8263985,11.0254349 L15.2480332,8.53545679 C14.8726461,8.2741957 14.3688799,8.39505117 14.1267471,8.80915888 C13.8862393,9.22326659 13.9983679,9.77244806 14.3753801,10.0354864 L18.438011,12.8613717 C18.5712653,12.9537906 18.7240202,13 18.8751501,13 C19.0506557,13 19.2277865,12.937795 19.3724161,12.8116077 L26.6851518,6.59110557 C27.0410383,6.28896689 27.1044153,5.73089899 26.8281564,5.34345058 Z" id="Path"></path>
                </g>
                <path d="M44.5771484,4.79003906 C47.3629697,4.79003906 49.425449,5.6852124 50.7646484,7.47558594 C51.8102266,8.87207729 52.3330078,10.6588433 52.3330078,12.8359375 C52.3330078,15.1920691 51.735032,17.1507083 50.5390625,18.7119141 C49.1354096,20.5452566 47.1338021,21.4619141 44.5341797,21.4619141 C42.1064332,21.4619141 40.1979236,20.6598387 38.8085938,19.0556641 C37.5696553,17.5087813 36.9501953,15.5537228 36.9501953,13.1904297 C36.9501953,11.0563044 37.4801379,9.23015082 38.5400391,7.71191406 C39.9007229,5.76398766 41.9130726,4.79003906 44.5771484,4.79003906 Z M44.7919922,19.5498047 C46.6754651,19.5498047 48.037919,18.874844 48.8793945,17.5249023 C49.7208701,16.1749607 50.1416016,14.6227301 50.1416016,12.8681641 C50.1416016,11.0133371 49.6564176,9.52018795 48.6860352,8.38867188 C47.7156527,7.2571558 46.3890058,6.69140625 44.7060547,6.69140625 C43.073234,6.69140625 41.7412161,7.25178476 40.7099609,8.37255859 C39.6787058,9.49333243 39.1630859,11.1458224 39.1630859,13.3300781 C39.1630859,15.0774827 39.6053016,16.550938 40.4897461,17.7504883 C41.3741906,18.9500385 42.8082583,19.5498047 44.7919922,19.5498047 Z M56.5546875,9.49511719 L56.5546875,17.1328125 C56.5546875,17.720055 56.6477855,18.1998679 56.8339844,18.5722656 C57.1777361,19.2597691 57.8186802,19.6035156 58.7568359,19.6035156 C60.1031968,19.6035156 61.0198543,19.0019591 61.5068359,17.7988281 C61.7718112,17.1542937 61.9042969,16.2698624 61.9042969,15.1455078 L61.9042969,9.49511719 L63.8378906,9.49511719 L63.8378906,21 L62.0117188,21 L62.0332031,19.3027344 C61.7825508,19.7395855 61.4710305,20.1083969 61.0986328,20.4091797 C60.3609989,21.0107452 59.4658256,21.3115234 58.4130859,21.3115234 C56.7731038,21.3115234 55.6559275,20.7636774 55.0615234,19.6679688 C54.7392562,19.0807262 54.578125,18.2965544 54.578125,17.3154297 L54.578125,9.49511719 L56.5546875,9.49511719 Z M67.2431641,6.28320312 L69.1982422,6.28320312 L69.1982422,9.49511719 L71.0351562,9.49511719 L71.0351562,11.0742188 L69.1982422,11.0742188 L69.1982422,18.5830078 C69.1982422,18.9840515 69.3343085,19.2526035 69.6064453,19.3886719 C69.7568367,19.4674483 70.0074852,19.5068359 70.3583984,19.5068359 C70.4514979,19.5068359 70.5517573,19.5050456 70.6591797,19.5014648 C70.7666021,19.4978841 70.8919264,19.4889324 71.0351562,19.4746094 L71.0351562,21 C70.8131499,21.0644534 70.5821952,21.1110025 70.3422852,21.1396484 C70.1023751,21.1682944 69.8427748,21.1826172 69.5634766,21.1826172 C68.6611283,21.1826172 68.0488297,20.9516625 67.7265625,20.4897461 C67.4042953,20.0278297 67.2431641,19.4280636 67.2431641,18.6904297 L67.2431641,11.0742188 L65.6855469,11.0742188 L65.6855469,9.49511719 L67.2431641,9.49511719 L67.2431641,6.28320312 Z M73.0224609,5.21972656 L74.9560547,5.21972656 L74.9560547,21 L73.0224609,21 L73.0224609,5.21972656 Z M82.421875,19.7539062 C83.7037825,19.7539062 84.5828427,19.2687223 85.059082,18.2983398 C85.5353214,17.3279574 85.7734375,16.2483783 85.7734375,15.0595703 C85.7734375,13.9853462 85.6015642,13.111657 85.2578125,12.4384766 C84.7135389,11.3785754 83.7753973,10.8486328 82.4433594,10.8486328 C81.2617128,10.8486328 80.4023464,11.2998002 79.8652344,12.2021484 C79.3281223,13.1044967 79.0595703,14.1930275 79.0595703,15.4677734 C79.0595703,16.6923889 79.3281223,17.7128865 79.8652344,18.5292969 C80.4023464,19.3457072 81.2545515,19.7539062 82.421875,19.7539062 Z M82.4970703,9.16210938 C83.9794996,9.16210938 85.2327423,9.65624506 86.2568359,10.6445312 C87.2809296,11.6328174 87.7929688,13.0865789 87.7929688,15.0058594 C87.7929688,16.8606864 87.3418014,18.3932231 86.4394531,19.6035156 C85.5371049,20.8138081 84.1370538,21.4189453 82.2392578,21.4189453 C80.6565676,21.4189453 79.3997442,20.8836317 78.46875,19.8129883 C77.5377558,18.7423449 77.0722656,17.3046965 77.0722656,15.5 C77.0722656,13.5663966 77.5628206,12.0266984 78.5439453,10.8808594 C79.52507,9.73502031 80.8427652,9.16210938 82.4970703,9.16210938 Z M94.6572266,19.7539062 C95.939134,19.7539062 96.8181942,19.2687223 97.2944336,18.2983398 C97.770673,17.3279574 98.0087891,16.2483783 98.0087891,15.0595703 C98.0087891,13.9853462 97.8369158,13.111657 97.4931641,12.4384766 C96.9488905,11.3785754 96.0107488,10.8486328 94.6787109,10.8486328 C93.4970644,10.8486328 92.637698,11.2998002 92.1005859,12.2021484 C91.5634739,13.1044967 91.2949219,14.1930275 91.2949219,15.4677734 C91.2949219,16.6923889 91.5634739,17.7128865 92.1005859,18.5292969 C92.637698,19.3457072 93.489903,19.7539062 94.6572266,19.7539062 Z M94.7324219,9.16210938 C96.2148512,9.16210938 97.4680938,9.65624506 98.4921875,10.6445312 C99.5162812,11.6328174 100.02832,13.0865789 100.02832,15.0058594 C100.02832,16.8606864 99.5771529,18.3932231 98.6748047,19.6035156 C97.7724564,20.8138081 96.3724053,21.4189453 94.4746094,21.4189453 C92.8919192,21.4189453 91.6350958,20.8836317 90.7041016,19.8129883 C89.7731073,18.7423449 89.3076172,17.3046965 89.3076172,15.5 C89.3076172,13.5663966 89.7981722,12.0266984 90.7792969,10.8808594 C91.7604216,9.73502031 93.0781167,9.16210938 94.7324219,9.16210938 Z M102.28418,5.21972656 L104.142578,5.21972656 L104.142578,14.3828125 L109.105469,9.49511719 L111.576172,9.49511719 L107.171875,13.8027344 L111.823242,21 L109.352539,21 L105.764648,15.1992188 L104.142578,16.6816406 L104.142578,21 L102.28418,21 L102.28418,5.21972656 Z" id="Outlook"></path>
            </g>
        </g>
    </g>
</svg>